<?xml version="1.0" encoding="utf-8"?>
<!-- Generator: Adobe Illustrator 30.1.0, SVG Export Plug-In . SVG Version: 9.03 Build 0)  -->
<svg version="1.1" id="图层_1" xmlns="http://www.w3.org/2000/svg" xmlns:xlink="http://www.w3.org/1999/xlink" x="0px" y="0px"
	 viewBox="0 0 2251 320" style="enable-background:new 0 0 2251 320;" xml:space="preserve">
<style type="text/css">
	.st0{fill:#E0883A;}
	.st1{fill:#F4ED51;}
	.st2{fill:#326BF6;}
	.st3{fill:#5FCCED;}
	.st4{fill-opacity:0;}
	.st5{fill:none;stroke:#333333;}
</style>
<g>
	<rect x="80" y="149.56" class="st0" width="60" height="23.83"/>
	<rect x="140" y="149.56" class="st1" width="4" height="23.83"/>
	<rect x="144" y="149.56" class="st2" width="8" height="23.83"/>
	<rect x="152" y="149.56" class="st3" width="4" height="23.83"/>
	<rect x="156" y="149.56" class="st2" width="8" height="23.83"/>
	<rect x="164" y="149.56" class="st3" width="4" height="23.83"/>
	<rect x="168" y="149.56" class="st2" width="8" height="23.83"/>
	<rect x="176" y="149.56" class="st3" width="16" height="23.83"/>
	<rect x="192" y="149.56" class="st2" width="48" height="23.83"/>
	<rect x="240" y="149.56" class="st3" width="8" height="23.83"/>
	<rect x="248" y="149.56" class="st2" width="4" height="23.83"/>
	<rect x="252" y="149.56" class="st3" width="4" height="23.83"/>
	<rect x="256" y="149.56" class="st2" width="4" height="23.83"/>
	<rect x="260" y="149.56" class="st3" width="16" height="23.83"/>
	<rect x="276" y="149.56" class="st1" width="8" height="23.83"/>
	<rect x="284" y="149.56" class="st3" width="24" height="23.83"/>
	<rect x="308" y="149.56" class="st2" width="72" height="23.83"/>
	<rect x="380" y="149.56" class="st3" width="8" height="23.83"/>
	<rect x="388" y="149.56" class="st2" width="4" height="23.83"/>
	<rect x="392" y="149.56" class="st3" width="4" height="23.83"/>
	<rect x="396" y="149.56" class="st2" width="64" height="23.83"/>
	<rect x="460" y="149.56" class="st3" width="12" height="23.83"/>
	<rect x="472" y="149.56" class="st1" width="32" height="23.83"/>
	<rect x="504" y="149.56" class="st0" width="4" height="23.83"/>
	<rect x="508" y="149.56" class="st1" width="24" height="23.83"/>
	<rect x="532" y="149.56" class="st3" width="12" height="23.83"/>
	<rect x="544" y="149.56" class="st2" width="4" height="23.83"/>
	<rect x="548" y="149.56" class="st3" width="4" height="23.83"/>
	<rect x="552" y="149.56" class="st2" width="44" height="23.83"/>
	<rect x="596" y="149.56" class="st3" width="4" height="23.83"/>
	<rect x="600" y="149.56" class="st2" width="8" height="23.83"/>
	<rect x="608" y="149.56" class="st3" width="4" height="23.83"/>
	<rect x="612" y="149.56" class="st2" width="44" height="23.83"/>
	<rect x="656" y="149.56" class="st3" width="12" height="23.83"/>
	<rect x="668" y="149.56" class="st2" width="4" height="23.83"/>
	<rect x="672" y="149.56" class="st3" width="4" height="23.83"/>
	<rect x="676" y="149.56" class="st2" width="4" height="23.83"/>
	<rect x="680" y="149.56" class="st3" width="4" height="23.83"/>
	<rect x="684" y="149.56" class="st2" width="36" height="23.83"/>
	<rect x="720" y="149.56" class="st3" width="8" height="23.83"/>
	<rect x="728" y="149.56" class="st2" width="4" height="23.83"/>
	<rect x="732" y="149.56" class="st3" width="4" height="23.83"/>
	<rect x="736" y="149.56" class="st2" width="4" height="23.83"/>
	<rect x="740" y="149.56" class="st3" width="52" height="23.83"/>
	<rect x="792" y="149.56" class="st2" width="36" height="23.83"/>
	<rect x="828" y="149.56" class="st3" width="4" height="23.83"/>
	<rect x="832" y="149.56" class="st2" width="24" height="23.83"/>
	<rect x="856" y="149.56" class="st3" width="36" height="23.83"/>
	<rect x="892" y="149.56" class="st2" width="52" height="23.83"/>
	<rect x="944" y="149.56" class="st3" width="4" height="23.83"/>
	<rect x="948" y="149.56" class="st2" width="4" height="23.83"/>
	<rect x="952" y="149.56" class="st3" width="12" height="23.83"/>
	<rect x="964" y="149.56" class="st1" width="8" height="23.83"/>
	<rect x="972" y="149.56" class="st0" width="1004" height="23.83"/>
	<rect x="1976" y="149.56" class="st1" width="4" height="23.83"/>
	<rect x="1980" y="149.56" class="st0" width="16" height="23.83"/>
	<rect x="1996" y="149.56" class="st1" width="4" height="23.83"/>
	<rect x="2000" y="149.56" class="st0" width="24" height="23.83"/>
	<rect x="2024" y="149.56" class="st1" width="4" height="23.83"/>
	<rect x="2028" y="149.56" class="st0" width="4" height="23.83"/>
	<rect x="2032" y="149.56" class="st1" width="4" height="23.83"/>
	<rect x="2036" y="149.56" class="st0" width="68" height="23.83"/>
	<rect x="2104" y="149.56" class="st1" width="16" height="23.83"/>
	<rect x="2120" y="149.56" class="st3" width="20" height="23.83"/>
	<rect x="2140" y="149.56" class="st1" width="36" height="23.83"/>
	<rect x="2176" y="149.56" class="st3" width="16" height="23.83"/>
	<rect x="2192" y="149.56" class="st1" width="8" height="23.83"/>
	<rect x="2200" y="149.56" class="st0" width="16" height="23.83"/>
</g>
<g>
	<rect x="80" y="149.56" class="st4" width="4" height="23.83"/>
	<rect x="84" y="149.56" class="st4" width="4" height="23.83"/>
	<rect x="88" y="149.56" class="st4" width="4" height="23.83"/>
	<rect x="92" y="149.56" class="st4" width="4" height="23.83"/>
	<rect x="96" y="149.56" class="st4" width="4" height="23.83"/>
	<rect x="100" y="149.56" class="st4" width="4" height="23.83"/>
	<rect x="104" y="149.56" class="st4" width="4" height="23.83"/>
	<rect x="108" y="149.56" class="st4" width="4" height="23.83"/>
	<rect x="112" y="149.56" class="st4" width="4" height="23.83"/>
	<rect x="116" y="149.56" class="st4" width="4" height="23.83"/>
	<rect x="120" y="149.56" class="st4" width="4" height="23.83"/>
	<rect x="124" y="149.56" class="st4" width="4" height="23.83"/>
	<rect x="128" y="149.56" class="st4" width="4" height="23.83"/>
	<rect x="132" y="149.56" class="st4" width="4" height="23.83"/>
	<rect x="136" y="149.56" class="st4" width="4" height="23.83"/>
	<rect x="140" y="149.56" class="st4" width="4" height="23.83"/>
	<rect x="144" y="149.56" class="st4" width="4" height="23.83"/>
	<rect x="148" y="149.56" class="st4" width="4" height="23.83"/>
	<rect x="152" y="149.56" class="st4" width="4" height="23.83"/>
	<rect x="156" y="149.56" class="st4" width="4" height="23.83"/>
	<rect x="160" y="149.56" class="st4" width="4" height="23.83"/>
	<rect x="164" y="149.56" class="st4" width="4" height="23.83"/>
	<rect x="168" y="149.56" class="st4" width="4" height="23.83"/>
	<rect x="172" y="149.56" class="st4" width="4" height="23.83"/>
	<rect x="176" y="149.56" class="st4" width="4" height="23.83"/>
	<rect x="180" y="149.56" class="st4" width="4" height="23.83"/>
	<rect x="184" y="149.56" class="st4" width="4" height="23.83"/>
	<rect x="188" y="149.56" class="st4" width="4" height="23.83"/>
	<rect x="192" y="149.56" class="st4" width="4" height="23.83"/>
	<rect x="196" y="149.56" class="st4" width="4" height="23.83"/>
	<rect x="200" y="149.56" class="st4" width="4" height="23.83"/>
	<rect x="204" y="149.56" class="st4" width="4" height="23.83"/>
	<rect x="208" y="149.56" class="st4" width="4" height="23.83"/>
	<rect x="212" y="149.56" class="st4" width="4" height="23.83"/>
	<rect x="216" y="149.56" class="st4" width="4" height="23.83"/>
	<rect x="220" y="149.56" class="st4" width="4" height="23.83"/>
	<rect x="224" y="149.56" class="st4" width="4" height="23.83"/>
	<rect x="228" y="149.56" class="st4" width="4" height="23.83"/>
	<rect x="232" y="149.56" class="st4" width="4" height="23.83"/>
	<rect x="236" y="149.56" class="st4" width="4" height="23.83"/>
	<rect x="240" y="149.56" class="st4" width="4" height="23.83"/>
	<rect x="244" y="149.56" class="st4" width="4" height="23.83"/>
	<rect x="248" y="149.56" class="st4" width="4" height="23.83"/>
	<rect x="252" y="149.56" class="st4" width="4" height="23.83"/>
	<rect x="256" y="149.56" class="st4" width="4" height="23.83"/>
	<rect x="260" y="149.56" class="st4" width="4" height="23.83"/>
	<rect x="264" y="149.56" class="st4" width="4" height="23.83"/>
	<rect x="268" y="149.56" class="st4" width="4" height="23.83"/>
	<rect x="272" y="149.56" class="st4" width="4" height="23.83"/>
	<rect x="276" y="149.56" class="st4" width="4" height="23.83"/>
	<rect x="280" y="149.56" class="st4" width="4" height="23.83"/>
	<rect x="284" y="149.56" class="st4" width="4" height="23.83"/>
	<rect x="288" y="149.56" class="st4" width="4" height="23.83"/>
	<rect x="292" y="149.56" class="st4" width="4" height="23.83"/>
	<rect x="296" y="149.56" class="st4" width="4" height="23.83"/>
	<rect x="300" y="149.56" class="st4" width="4" height="23.83"/>
	<rect x="304" y="149.56" class="st4" width="4" height="23.83"/>
	<rect x="308" y="149.56" class="st4" width="4" height="23.83"/>
	<rect x="312" y="149.56" class="st4" width="4" height="23.83"/>
	<rect x="316" y="149.56" class="st4" width="4" height="23.83"/>
	<rect x="320" y="149.56" class="st4" width="4" height="23.83"/>
	<rect x="324" y="149.56" class="st4" width="4" height="23.83"/>
	<rect x="328" y="149.56" class="st4" width="4" height="23.83"/>
	<rect x="332" y="149.56" class="st4" width="4" height="23.83"/>
	<rect x="336" y="149.56" class="st4" width="4" height="23.83"/>
	<rect x="340" y="149.56" class="st4" width="4" height="23.83"/>
	<rect x="344" y="149.56" class="st4" width="4" height="23.83"/>
	<rect x="348" y="149.56" class="st4" width="4" height="23.83"/>
	<rect x="352" y="149.56" class="st4" width="4" height="23.83"/>
	<rect x="356" y="149.56" class="st4" width="4" height="23.83"/>
	<rect x="360" y="149.56" class="st4" width="4" height="23.83"/>
	<rect x="364" y="149.56" class="st4" width="4" height="23.83"/>
	<rect x="368" y="149.56" class="st4" width="4" height="23.83"/>
	<rect x="372" y="149.56" class="st4" width="4" height="23.83"/>
	<rect x="376" y="149.56" class="st4" width="4" height="23.83"/>
	<rect x="380" y="149.56" class="st4" width="4" height="23.83"/>
	<rect x="384" y="149.56" class="st4" width="4" height="23.83"/>
	<rect x="388" y="149.56" class="st4" width="4" height="23.83"/>
	<rect x="392" y="149.56" class="st4" width="4" height="23.83"/>
	<rect x="396" y="149.56" class="st4" width="4" height="23.83"/>
	<rect x="400" y="149.56" class="st4" width="4" height="23.83"/>
	<rect x="404" y="149.56" class="st4" width="4" height="23.83"/>
	<rect x="408" y="149.56" class="st4" width="4" height="23.83"/>
	<rect x="412" y="149.56" class="st4" width="4" height="23.83"/>
	<rect x="416" y="149.56" class="st4" width="4" height="23.83"/>
	<rect x="420" y="149.56" class="st4" width="4" height="23.83"/>
	<rect x="424" y="149.56" class="st4" width="4" height="23.83"/>
	<rect x="428" y="149.56" class="st4" width="4" height="23.83"/>
	<rect x="432" y="149.56" class="st4" width="4" height="23.83"/>
	<rect x="436" y="149.56" class="st4" width="4" height="23.83"/>
	<rect x="440" y="149.56" class="st4" width="4" height="23.83"/>
	<rect x="444" y="149.56" class="st4" width="4" height="23.83"/>
	<rect x="448" y="149.56" class="st4" width="4" height="23.83"/>
	<rect x="452" y="149.56" class="st4" width="4" height="23.83"/>
	<rect x="456" y="149.56" class="st4" width="4" height="23.83"/>
	<rect x="460" y="149.56" class="st4" width="4" height="23.83"/>
	<rect x="464" y="149.56" class="st4" width="4" height="23.83"/>
	<rect x="468" y="149.56" class="st4" width="4" height="23.83"/>
	<rect x="472" y="149.56" class="st4" width="4" height="23.83"/>
	<rect x="476" y="149.56" class="st4" width="4" height="23.83"/>
	<rect x="480" y="149.56" class="st4" width="4" height="23.83"/>
	<rect x="484" y="149.56" class="st4" width="4" height="23.83"/>
	<rect x="488" y="149.56" class="st4" width="4" height="23.83"/>
	<rect x="492" y="149.56" class="st4" width="4" height="23.83"/>
	<rect x="496" y="149.56" class="st4" width="4" height="23.83"/>
	<rect x="500" y="149.56" class="st4" width="4" height="23.83"/>
	<rect x="504" y="149.56" class="st4" width="4" height="23.83"/>
	<rect x="508" y="149.56" class="st4" width="4" height="23.83"/>
	<rect x="512" y="149.56" class="st4" width="4" height="23.83"/>
	<rect x="516" y="149.56" class="st4" width="4" height="23.83"/>
	<rect x="520" y="149.56" class="st4" width="4" height="23.83"/>
	<rect x="524" y="149.56" class="st4" width="4" height="23.83"/>
	<rect x="528" y="149.56" class="st4" width="4" height="23.83"/>
	<rect x="532" y="149.56" class="st4" width="4" height="23.83"/>
	<rect x="536" y="149.56" class="st4" width="4" height="23.83"/>
	<rect x="540" y="149.56" class="st4" width="4" height="23.83"/>
	<rect x="544" y="149.56" class="st4" width="4" height="23.83"/>
	<rect x="548" y="149.56" class="st4" width="4" height="23.83"/>
	<rect x="552" y="149.56" class="st4" width="4" height="23.83"/>
	<rect x="556" y="149.56" class="st4" width="4" height="23.83"/>
	<rect x="560" y="149.56" class="st4" width="4" height="23.83"/>
	<rect x="564" y="149.56" class="st4" width="4" height="23.83"/>
	<rect x="568" y="149.56" class="st4" width="4" height="23.83"/>
	<rect x="572" y="149.56" class="st4" width="4" height="23.83"/>
	<rect x="576" y="149.56" class="st4" width="4" height="23.83"/>
	<rect x="580" y="149.56" class="st4" width="4" height="23.83"/>
	<rect x="584" y="149.56" class="st4" width="4" height="23.83"/>
	<rect x="588" y="149.56" class="st4" width="4" height="23.83"/>
	<rect x="592" y="149.56" class="st4" width="4" height="23.83"/>
	<rect x="596" y="149.56" class="st4" width="4" height="23.83"/>
	<rect x="600" y="149.56" class="st4" width="4" height="23.83"/>
	<rect x="604" y="149.56" class="st4" width="4" height="23.83"/>
	<rect x="608" y="149.56" class="st4" width="4" height="23.83"/>
	<rect x="612" y="149.56" class="st4" width="4" height="23.83"/>
	<rect x="616" y="149.56" class="st4" width="4" height="23.83"/>
	<rect x="620" y="149.56" class="st4" width="4" height="23.83"/>
	<rect x="624" y="149.56" class="st4" width="4" height="23.83"/>
	<rect x="628" y="149.56" class="st4" width="4" height="23.83"/>
	<rect x="632" y="149.56" class="st4" width="4" height="23.83"/>
	<rect x="636" y="149.56" class="st4" width="4" height="23.83"/>
	<rect x="640" y="149.56" class="st4" width="4" height="23.83"/>
	<rect x="644" y="149.56" class="st4" width="4" height="23.83"/>
	<rect x="648" y="149.56" class="st4" width="4" height="23.83"/>
	<rect x="652" y="149.56" class="st4" width="4" height="23.83"/>
	<rect x="656" y="149.56" class="st4" width="4" height="23.83"/>
	<rect x="660" y="149.56" class="st4" width="4" height="23.83"/>
	<rect x="664" y="149.56" class="st4" width="4" height="23.83"/>
	<rect x="668" y="149.56" class="st4" width="4" height="23.83"/>
	<rect x="672" y="149.56" class="st4" width="4" height="23.83"/>
	<rect x="676" y="149.56" class="st4" width="4" height="23.83"/>
	<rect x="680" y="149.56" class="st4" width="4" height="23.83"/>
	<rect x="684" y="149.56" class="st4" width="4" height="23.83"/>
	<rect x="688" y="149.56" class="st4" width="4" height="23.83"/>
	<rect x="692" y="149.56" class="st4" width="4" height="23.83"/>
	<rect x="696" y="149.56" class="st4" width="4" height="23.83"/>
	<rect x="700" y="149.56" class="st4" width="4" height="23.83"/>
	<rect x="704" y="149.56" class="st4" width="4" height="23.83"/>
	<rect x="708" y="149.56" class="st4" width="4" height="23.83"/>
	<rect x="712" y="149.56" class="st4" width="4" height="23.83"/>
	<rect x="716" y="149.56" class="st4" width="4" height="23.83"/>
	<rect x="720" y="149.56" class="st4" width="4" height="23.83"/>
	<rect x="724" y="149.56" class="st4" width="4" height="23.83"/>
	<rect x="728" y="149.56" class="st4" width="4" height="23.83"/>
	<rect x="732" y="149.56" class="st4" width="4" height="23.83"/>
	<rect x="736" y="149.56" class="st4" width="4" height="23.83"/>
	<rect x="740" y="149.56" class="st4" width="4" height="23.83"/>
	<rect x="744" y="149.56" class="st4" width="4" height="23.83"/>
	<rect x="748" y="149.56" class="st4" width="4" height="23.83"/>
	<rect x="752" y="149.56" class="st4" width="4" height="23.83"/>
	<rect x="756" y="149.56" class="st4" width="4" height="23.83"/>
	<rect x="760" y="149.56" class="st4" width="4" height="23.83"/>
	<rect x="764" y="149.56" class="st4" width="4" height="23.83"/>
	<rect x="768" y="149.56" class="st4" width="4" height="23.83"/>
	<rect x="772" y="149.56" class="st4" width="4" height="23.83"/>
	<rect x="776" y="149.56" class="st4" width="4" height="23.83"/>
	<rect x="780" y="149.56" class="st4" width="4" height="23.83"/>
	<rect x="784" y="149.56" class="st4" width="4" height="23.83"/>
	<rect x="788" y="149.56" class="st4" width="4" height="23.83"/>
	<rect x="792" y="149.56" class="st4" width="4" height="23.83"/>
	<rect x="796" y="149.56" class="st4" width="4" height="23.83"/>
	<rect x="800" y="149.56" class="st4" width="4" height="23.83"/>
	<rect x="804" y="149.56" class="st4" width="4" height="23.83"/>
	<rect x="808" y="149.56" class="st4" width="4" height="23.83"/>
	<rect x="812" y="149.56" class="st4" width="4" height="23.83"/>
	<rect x="816" y="149.56" class="st4" width="4" height="23.83"/>
	<rect x="820" y="149.56" class="st4" width="4" height="23.83"/>
	<rect x="824" y="149.56" class="st4" width="4" height="23.83"/>
	<rect x="828" y="149.56" class="st4" width="4" height="23.83"/>
	<rect x="832" y="149.56" class="st4" width="4" height="23.83"/>
	<rect x="836" y="149.56" class="st4" width="4" height="23.83"/>
	<rect x="840" y="149.56" class="st4" width="4" height="23.83"/>
	<rect x="844" y="149.56" class="st4" width="4" height="23.83"/>
	<rect x="848" y="149.56" class="st4" width="4" height="23.83"/>
	<rect x="852" y="149.56" class="st4" width="4" height="23.83"/>
	<rect x="856" y="149.56" class="st4" width="4" height="23.83"/>
	<rect x="860" y="149.56" class="st4" width="4" height="23.83"/>
	<rect x="864" y="149.56" class="st4" width="4" height="23.83"/>
	<rect x="868" y="149.56" class="st4" width="4" height="23.83"/>
	<rect x="872" y="149.56" class="st4" width="4" height="23.83"/>
	<rect x="876" y="149.56" class="st4" width="4" height="23.83"/>
	<rect x="880" y="149.56" class="st4" width="4" height="23.83"/>
	<rect x="884" y="149.56" class="st4" width="4" height="23.83"/>
	<rect x="888" y="149.56" class="st4" width="4" height="23.83"/>
	<rect x="892" y="149.56" class="st4" width="4" height="23.83"/>
	<rect x="896" y="149.56" class="st4" width="4" height="23.83"/>
	<rect x="900" y="149.56" class="st4" width="4" height="23.83"/>
	<rect x="904" y="149.56" class="st4" width="4" height="23.83"/>
	<rect x="908" y="149.56" class="st4" width="4" height="23.83"/>
	<rect x="912" y="149.56" class="st4" width="4" height="23.83"/>
	<rect x="916" y="149.56" class="st4" width="4" height="23.83"/>
	<rect x="920" y="149.56" class="st4" width="4" height="23.83"/>
	<rect x="924" y="149.56" class="st4" width="4" height="23.83"/>
	<rect x="928" y="149.56" class="st4" width="4" height="23.83"/>
	<rect x="932" y="149.56" class="st4" width="4" height="23.83"/>
	<rect x="936" y="149.56" class="st4" width="4" height="23.83"/>
	<rect x="940" y="149.56" class="st4" width="4" height="23.83"/>
	<rect x="944" y="149.56" class="st4" width="4" height="23.83"/>
	<rect x="948" y="149.56" class="st4" width="4" height="23.83"/>
	<rect x="952" y="149.56" class="st4" width="4" height="23.83"/>
	<rect x="956" y="149.56" class="st4" width="4" height="23.83"/>
	<rect x="960" y="149.56" class="st4" width="4" height="23.83"/>
	<rect x="964" y="149.56" class="st4" width="4" height="23.83"/>
	<rect x="968" y="149.56" class="st4" width="4" height="23.83"/>
	<rect x="972" y="149.56" class="st4" width="4" height="23.83"/>
	<rect x="976" y="149.56" class="st4" width="4" height="23.83"/>
	<rect x="980" y="149.56" class="st4" width="4" height="23.83"/>
	<rect x="984" y="149.56" class="st4" width="4" height="23.83"/>
	<rect x="988" y="149.56" class="st4" width="4" height="23.83"/>
	<rect x="992" y="149.56" class="st4" width="4" height="23.83"/>
	<rect x="996" y="149.56" class="st4" width="4" height="23.83"/>
	<rect x="1000" y="149.56" class="st4" width="4" height="23.83"/>
	<rect x="1004" y="149.56" class="st4" width="4" height="23.83"/>
	<rect x="1008" y="149.56" class="st4" width="4" height="23.83"/>
	<rect x="1012" y="149.56" class="st4" width="4" height="23.83"/>
	<rect x="1016" y="149.56" class="st4" width="4" height="23.83"/>
	<rect x="1020" y="149.56" class="st4" width="4" height="23.83"/>
	<rect x="1024" y="149.56" class="st4" width="4" height="23.83"/>
	<rect x="1028" y="149.56" class="st4" width="4" height="23.83"/>
	<rect x="1032" y="149.56" class="st4" width="4" height="23.83"/>
	<rect x="1036" y="149.56" class="st4" width="4" height="23.83"/>
	<rect x="1040" y="149.56" class="st4" width="4" height="23.83"/>
	<rect x="1044" y="149.56" class="st4" width="4" height="23.83"/>
	<rect x="1048" y="149.56" class="st4" width="4" height="23.83"/>
	<rect x="1052" y="149.56" class="st4" width="4" height="23.83"/>
	<rect x="1056" y="149.56" class="st4" width="4" height="23.83"/>
	<rect x="1060" y="149.56" class="st4" width="4" height="23.83"/>
	<rect x="1064" y="149.56" class="st4" width="4" height="23.83"/>
	<rect x="1068" y="149.56" class="st4" width="4" height="23.83"/>
	<rect x="1072" y="149.56" class="st4" width="4" height="23.83"/>
	<rect x="1076" y="149.56" class="st4" width="4" height="23.83"/>
	<rect x="1080" y="149.56" class="st4" width="4" height="23.83"/>
	<rect x="1084" y="149.56" class="st4" width="4" height="23.83"/>
	<rect x="1088" y="149.56" class="st4" width="4" height="23.83"/>
	<rect x="1092" y="149.56" class="st4" width="4" height="23.83"/>
	<rect x="1096" y="149.56" class="st4" width="4" height="23.83"/>
	<rect x="1100" y="149.56" class="st4" width="4" height="23.83"/>
	<rect x="1104" y="149.56" class="st4" width="4" height="23.83"/>
	<rect x="1108" y="149.56" class="st4" width="4" height="23.83"/>
	<rect x="1112" y="149.56" class="st4" width="4" height="23.83"/>
	<rect x="1116" y="149.56" class="st4" width="4" height="23.83"/>
	<rect x="1120" y="149.56" class="st4" width="4" height="23.83"/>
	<rect x="1124" y="149.56" class="st4" width="4" height="23.83"/>
	<rect x="1128" y="149.56" class="st4" width="4" height="23.83"/>
	<rect x="1132" y="149.56" class="st4" width="4" height="23.83"/>
	<rect x="1136" y="149.56" class="st4" width="4" height="23.83"/>
	<rect x="1140" y="149.56" class="st4" width="4" height="23.83"/>
	<rect x="1144" y="149.56" class="st4" width="4" height="23.83"/>
	<rect x="1148" y="149.56" class="st4" width="4" height="23.83"/>
	<rect x="1152" y="149.56" class="st4" width="4" height="23.83"/>
	<rect x="1156" y="149.56" class="st4" width="4" height="23.83"/>
	<rect x="1160" y="149.56" class="st4" width="4" height="23.83"/>
	<rect x="1164" y="149.56" class="st4" width="4" height="23.83"/>
	<rect x="1168" y="149.56" class="st4" width="4" height="23.83"/>
	<rect x="1172" y="149.56" class="st4" width="4" height="23.83"/>
	<rect x="1176" y="149.56" class="st4" width="4" height="23.83"/>
	<rect x="1180" y="149.56" class="st4" width="4" height="23.83"/>
	<rect x="1184" y="149.56" class="st4" width="4" height="23.83"/>
	<rect x="1188" y="149.56" class="st4" width="4" height="23.83"/>
	<rect x="1192" y="149.56" class="st4" width="4" height="23.83"/>
	<rect x="1196" y="149.56" class="st4" width="4" height="23.83"/>
	<rect x="1200" y="149.56" class="st4" width="4" height="23.83"/>
	<rect x="1204" y="149.56" class="st4" width="4" height="23.83"/>
	<rect x="1208" y="149.56" class="st4" width="4" height="23.83"/>
	<rect x="1212" y="149.56" class="st4" width="4" height="23.83"/>
	<rect x="1216" y="149.56" class="st4" width="4" height="23.83"/>
	<rect x="1220" y="149.56" class="st4" width="4" height="23.83"/>
	<rect x="1224" y="149.56" class="st4" width="4" height="23.83"/>
	<rect x="1228" y="149.56" class="st4" width="4" height="23.83"/>
	<rect x="1232" y="149.56" class="st4" width="4" height="23.83"/>
	<rect x="1236" y="149.56" class="st4" width="4" height="23.83"/>
	<rect x="1240" y="149.56" class="st4" width="4" height="23.83"/>
	<rect x="1244" y="149.56" class="st4" width="4" height="23.83"/>
	<rect x="1248" y="149.56" class="st4" width="4" height="23.83"/>
	<rect x="1252" y="149.56" class="st4" width="4" height="23.83"/>
	<rect x="1256" y="149.56" class="st4" width="4" height="23.83"/>
	<rect x="1260" y="149.56" class="st4" width="4" height="23.83"/>
	<rect x="1264" y="149.56" class="st4" width="4" height="23.83"/>
	<rect x="1268" y="149.56" class="st4" width="4" height="23.83"/>
	<rect x="1272" y="149.56" class="st4" width="4" height="23.83"/>
	<rect x="1276" y="149.56" class="st4" width="4" height="23.83"/>
	<rect x="1280" y="149.56" class="st4" width="4" height="23.83"/>
	<rect x="1284" y="149.56" class="st4" width="4" height="23.83"/>
	<rect x="1288" y="149.56" class="st4" width="4" height="23.83"/>
	<rect x="1292" y="149.56" class="st4" width="4" height="23.83"/>
	<rect x="1296" y="149.56" class="st4" width="4" height="23.83"/>
	<rect x="1300" y="149.56" class="st4" width="4" height="23.83"/>
	<rect x="1304" y="149.56" class="st4" width="4" height="23.83"/>
	<rect x="1308" y="149.56" class="st4" width="4" height="23.83"/>
	<rect x="1312" y="149.56" class="st4" width="4" height="23.83"/>
	<rect x="1316" y="149.56" class="st4" width="4" height="23.83"/>
	<rect x="1320" y="149.56" class="st4" width="4" height="23.83"/>
	<rect x="1324" y="149.56" class="st4" width="4" height="23.83"/>
	<rect x="1328" y="149.56" class="st4" width="4" height="23.83"/>
	<rect x="1332" y="149.56" class="st4" width="4" height="23.83"/>
	<rect x="1336" y="149.56" class="st4" width="4" height="23.83"/>
	<rect x="1340" y="149.56" class="st4" width="4" height="23.83"/>
	<rect x="1344" y="149.56" class="st4" width="4" height="23.83"/>
	<rect x="1348" y="149.56" class="st4" width="4" height="23.83"/>
	<rect x="1352" y="149.56" class="st4" width="4" height="23.83"/>
	<rect x="1356" y="149.56" class="st4" width="4" height="23.83"/>
	<rect x="1360" y="149.56" class="st4" width="4" height="23.83"/>
	<rect x="1364" y="149.56" class="st4" width="4" height="23.83"/>
	<rect x="1368" y="149.56" class="st4" width="4" height="23.83"/>
	<rect x="1372" y="149.56" class="st4" width="4" height="23.83"/>
	<rect x="1376" y="149.56" class="st4" width="4" height="23.83"/>
	<rect x="1380" y="149.56" class="st4" width="4" height="23.83"/>
	<rect x="1384" y="149.56" class="st4" width="4" height="23.83"/>
	<rect x="1388" y="149.56" class="st4" width="4" height="23.83"/>
	<rect x="1392" y="149.56" class="st4" width="4" height="23.83"/>
	<rect x="1396" y="149.56" class="st4" width="4" height="23.83"/>
	<rect x="1400" y="149.56" class="st4" width="4" height="23.83"/>
	<rect x="1404" y="149.56" class="st4" width="4" height="23.83"/>
	<rect x="1408" y="149.56" class="st4" width="4" height="23.83"/>
	<rect x="1412" y="149.56" class="st4" width="4" height="23.83"/>
	<rect x="1416" y="149.56" class="st4" width="4" height="23.83"/>
	<rect x="1420" y="149.56" class="st4" width="4" height="23.83"/>
	<rect x="1424" y="149.56" class="st4" width="4" height="23.83"/>
	<rect x="1428" y="149.56" class="st4" width="4" height="23.83"/>
	<rect x="1432" y="149.56" class="st4" width="4" height="23.83"/>
	<rect x="1436" y="149.56" class="st4" width="4" height="23.83"/>
	<rect x="1440" y="149.56" class="st4" width="4" height="23.83"/>
	<rect x="1444" y="149.56" class="st4" width="4" height="23.83"/>
	<rect x="1448" y="149.56" class="st4" width="4" height="23.83"/>
	<rect x="1452" y="149.56" class="st4" width="4" height="23.83"/>
	<rect x="1456" y="149.56" class="st4" width="4" height="23.83"/>
	<rect x="1460" y="149.56" class="st4" width="4" height="23.83"/>
	<rect x="1464" y="149.56" class="st4" width="4" height="23.83"/>
	<rect x="1468" y="149.56" class="st4" width="4" height="23.83"/>
	<rect x="1472" y="149.56" class="st4" width="4" height="23.83"/>
	<rect x="1476" y="149.56" class="st4" width="4" height="23.83"/>
	<rect x="1480" y="149.56" class="st4" width="4" height="23.83"/>
	<rect x="1484" y="149.56" class="st4" width="4" height="23.83"/>
	<rect x="1488" y="149.56" class="st4" width="4" height="23.83"/>
	<rect x="1492" y="149.56" class="st4" width="4" height="23.83"/>
	<rect x="1496" y="149.56" class="st4" width="4" height="23.83"/>
	<rect x="1500" y="149.56" class="st4" width="4" height="23.83"/>
	<rect x="1504" y="149.56" class="st4" width="4" height="23.83"/>
	<rect x="1508" y="149.56" class="st4" width="4" height="23.83"/>
	<rect x="1512" y="149.56" class="st4" width="4" height="23.83"/>
	<rect x="1516" y="149.56" class="st4" width="4" height="23.83"/>
	<rect x="1520" y="149.56" class="st4" width="4" height="23.83"/>
	<rect x="1524" y="149.56" class="st4" width="4" height="23.83"/>
	<rect x="1528" y="149.56" class="st4" width="4" height="23.83"/>
	<rect x="1532" y="149.56" class="st4" width="4" height="23.83"/>
	<rect x="1536" y="149.56" class="st4" width="4" height="23.83"/>
	<rect x="1540" y="149.56" class="st4" width="4" height="23.83"/>
	<rect x="1544" y="149.56" class="st4" width="4" height="23.83"/>
	<rect x="1548" y="149.56" class="st4" width="4" height="23.83"/>
	<rect x="1552" y="149.56" class="st4" width="4" height="23.83"/>
	<rect x="1556" y="149.56" class="st4" width="4" height="23.83"/>
	<rect x="1560" y="149.56" class="st4" width="4" height="23.83"/>
	<rect x="1564" y="149.56" class="st4" width="4" height="23.83"/>
	<rect x="1568" y="149.56" class="st4" width="4" height="23.83"/>
	<rect x="1572" y="149.56" class="st4" width="4" height="23.83"/>
	<rect x="1576" y="149.56" class="st4" width="4" height="23.83"/>
	<rect x="1580" y="149.56" class="st4" width="4" height="23.83"/>
	<rect x="1584" y="149.56" class="st4" width="4" height="23.83"/>
	<rect x="1588" y="149.56" class="st4" width="4" height="23.83"/>
	<rect x="1592" y="149.56" class="st4" width="4" height="23.83"/>
	<rect x="1596" y="149.56" class="st4" width="4" height="23.83"/>
	<rect x="1600" y="149.56" class="st4" width="4" height="23.83"/>
	<rect x="1604" y="149.56" class="st4" width="4" height="23.83"/>
	<rect x="1608" y="149.56" class="st4" width="4" height="23.83"/>
	<rect x="1612" y="149.56" class="st4" width="4" height="23.83"/>
	<rect x="1616" y="149.56" class="st4" width="4" height="23.83"/>
	<rect x="1620" y="149.56" class="st4" width="4" height="23.83"/>
	<rect x="1624" y="149.56" class="st4" width="4" height="23.83"/>
	<rect x="1628" y="149.56" class="st4" width="4" height="23.83"/>
	<rect x="1632" y="149.56" class="st4" width="4" height="23.83"/>
	<rect x="1636" y="149.56" class="st4" width="4" height="23.83"/>
	<rect x="1640" y="149.56" class="st4" width="4" height="23.83"/>
	<rect x="1644" y="149.56" class="st4" width="4" height="23.83"/>
	<rect x="1648" y="149.56" class="st4" width="4" height="23.83"/>
	<rect x="1652" y="149.56" class="st4" width="4" height="23.83"/>
	<rect x="1656" y="149.56" class="st4" width="4" height="23.83"/>
	<rect x="1660" y="149.56" class="st4" width="4" height="23.83"/>
	<rect x="1664" y="149.56" class="st4" width="4" height="23.83"/>
	<rect x="1668" y="149.56" class="st4" width="4" height="23.83"/>
	<rect x="1672" y="149.56" class="st4" width="4" height="23.83"/>
	<rect x="1676" y="149.56" class="st4" width="4" height="23.83"/>
	<rect x="1680" y="149.56" class="st4" width="4" height="23.83"/>
	<rect x="1684" y="149.56" class="st4" width="4" height="23.83"/>
	<rect x="1688" y="149.56" class="st4" width="4" height="23.83"/>
	<rect x="1692" y="149.56" class="st4" width="4" height="23.83"/>
	<rect x="1696" y="149.56" class="st4" width="4" height="23.83"/>
	<rect x="1700" y="149.56" class="st4" width="4" height="23.83"/>
	<rect x="1704" y="149.56" class="st4" width="4" height="23.83"/>
	<rect x="1708" y="149.56" class="st4" width="4" height="23.83"/>
	<rect x="1712" y="149.56" class="st4" width="4" height="23.83"/>
	<rect x="1716" y="149.56" class="st4" width="4" height="23.83"/>
	<rect x="1720" y="149.56" class="st4" width="4" height="23.83"/>
	<rect x="1724" y="149.56" class="st4" width="4" height="23.83"/>
	<rect x="1728" y="149.56" class="st4" width="4" height="23.83"/>
	<rect x="1732" y="149.56" class="st4" width="4" height="23.83"/>
	<rect x="1736" y="149.56" class="st4" width="4" height="23.83"/>
	<rect x="1740" y="149.56" class="st4" width="4" height="23.83"/>
	<rect x="1744" y="149.56" class="st4" width="4" height="23.83"/>
	<rect x="1748" y="149.56" class="st4" width="4" height="23.83"/>
	<rect x="1752" y="149.56" class="st4" width="4" height="23.83"/>
	<rect x="1756" y="149.56" class="st4" width="4" height="23.83"/>
	<rect x="1760" y="149.56" class="st4" width="4" height="23.83"/>
	<rect x="1764" y="149.56" class="st4" width="4" height="23.83"/>
	<rect x="1768" y="149.56" class="st4" width="4" height="23.83"/>
	<rect x="1772" y="149.56" class="st4" width="4" height="23.83"/>
	<rect x="1776" y="149.56" class="st4" width="4" height="23.83"/>
	<rect x="1780" y="149.56" class="st4" width="4" height="23.83"/>
	<rect x="1784" y="149.56" class="st4" width="4" height="23.83"/>
	<rect x="1788" y="149.56" class="st4" width="4" height="23.83"/>
	<rect x="1792" y="149.56" class="st4" width="4" height="23.83"/>
	<rect x="1796" y="149.56" class="st4" width="4" height="23.83"/>
	<rect x="1800" y="149.56" class="st4" width="4" height="23.83"/>
	<rect x="1804" y="149.56" class="st4" width="4" height="23.83"/>
	<rect x="1808" y="149.56" class="st4" width="4" height="23.83"/>
	<rect x="1812" y="149.56" class="st4" width="4" height="23.83"/>
	<rect x="1816" y="149.56" class="st4" width="4" height="23.83"/>
	<rect x="1820" y="149.56" class="st4" width="4" height="23.83"/>
	<rect x="1824" y="149.56" class="st4" width="4" height="23.83"/>
	<rect x="1828" y="149.56" class="st4" width="4" height="23.83"/>
	<rect x="1832" y="149.56" class="st4" width="4" height="23.83"/>
	<rect x="1836" y="149.56" class="st4" width="4" height="23.83"/>
	<rect x="1840" y="149.56" class="st4" width="4" height="23.83"/>
	<rect x="1844" y="149.56" class="st4" width="4" height="23.83"/>
	<rect x="1848" y="149.56" class="st4" width="4" height="23.83"/>
	<rect x="1852" y="149.56" class="st4" width="4" height="23.83"/>
	<rect x="1856" y="149.56" class="st4" width="4" height="23.83"/>
	<rect x="1860" y="149.56" class="st4" width="4" height="23.83"/>
	<rect x="1864" y="149.56" class="st4" width="4" height="23.83"/>
	<rect x="1868" y="149.56" class="st4" width="4" height="23.83"/>
	<rect x="1872" y="149.56" class="st4" width="4" height="23.83"/>
	<rect x="1876" y="149.56" class="st4" width="4" height="23.83"/>
	<rect x="1880" y="149.56" class="st4" width="4" height="23.83"/>
	<rect x="1884" y="149.56" class="st4" width="4" height="23.83"/>
	<rect x="1888" y="149.56" class="st4" width="4" height="23.83"/>
	<rect x="1892" y="149.56" class="st4" width="4" height="23.83"/>
	<rect x="1896" y="149.56" class="st4" width="4" height="23.83"/>
	<rect x="1900" y="149.56" class="st4" width="4" height="23.83"/>
	<rect x="1904" y="149.56" class="st4" width="4" height="23.83"/>
	<rect x="1908" y="149.56" class="st4" width="4" height="23.83"/>
	<rect x="1912" y="149.56" class="st4" width="4" height="23.83"/>
	<rect x="1916" y="149.56" class="st4" width="4" height="23.83"/>
	<rect x="1920" y="149.56" class="st4" width="4" height="23.83"/>
	<rect x="1924" y="149.56" class="st4" width="4" height="23.83"/>
	<rect x="1928" y="149.56" class="st4" width="4" height="23.83"/>
	<rect x="1932" y="149.56" class="st4" width="4" height="23.83"/>
	<rect x="1936" y="149.56" class="st4" width="4" height="23.83"/>
	<rect x="1940" y="149.56" class="st4" width="4" height="23.83"/>
	<rect x="1944" y="149.56" class="st4" width="4" height="23.83"/>
	<rect x="1948" y="149.56" class="st4" width="4" height="23.83"/>
	<rect x="1952" y="149.56" class="st4" width="4" height="23.83"/>
	<rect x="1956" y="149.56" class="st4" width="4" height="23.83"/>
	<rect x="1960" y="149.56" class="st4" width="4" height="23.83"/>
	<rect x="1964" y="149.56" class="st4" width="4" height="23.83"/>
	<rect x="1968" y="149.56" class="st4" width="4" height="23.83"/>
	<rect x="1972" y="149.56" class="st4" width="4" height="23.83"/>
	<rect x="1976" y="149.56" class="st4" width="4" height="23.83"/>
	<rect x="1980" y="149.56" class="st4" width="4" height="23.83"/>
	<rect x="1984" y="149.56" class="st4" width="4" height="23.83"/>
	<rect x="1988" y="149.56" class="st4" width="4" height="23.83"/>
	<rect x="1992" y="149.56" class="st4" width="4" height="23.83"/>
	<rect x="1996" y="149.56" class="st4" width="4" height="23.83"/>
	<rect x="2000" y="149.56" class="st4" width="4" height="23.83"/>
	<rect x="2004" y="149.56" class="st4" width="4" height="23.83"/>
	<rect x="2008" y="149.56" class="st4" width="4" height="23.83"/>
	<rect x="2012" y="149.56" class="st4" width="4" height="23.83"/>
	<rect x="2016" y="149.56" class="st4" width="4" height="23.83"/>
	<rect x="2020" y="149.56" class="st4" width="4" height="23.83"/>
	<rect x="2024" y="149.56" class="st4" width="4" height="23.83"/>
	<rect x="2028" y="149.56" class="st4" width="4" height="23.83"/>
	<rect x="2032" y="149.56" class="st4" width="4" height="23.83"/>
	<rect x="2036" y="149.56" class="st4" width="4" height="23.83"/>
	<rect x="2040" y="149.56" class="st4" width="4" height="23.83"/>
	<rect x="2044" y="149.56" class="st4" width="4" height="23.83"/>
	<rect x="2048" y="149.56" class="st4" width="4" height="23.83"/>
	<rect x="2052" y="149.56" class="st4" width="4" height="23.83"/>
	<rect x="2056" y="149.56" class="st4" width="4" height="23.83"/>
	<rect x="2060" y="149.56" class="st4" width="4" height="23.83"/>
	<rect x="2064" y="149.56" class="st4" width="4" height="23.83"/>
	<rect x="2068" y="149.56" class="st4" width="4" height="23.83"/>
	<rect x="2072" y="149.56" class="st4" width="4" height="23.83"/>
	<rect x="2076" y="149.56" class="st4" width="4" height="23.83"/>
	<rect x="2080" y="149.56" class="st4" width="4" height="23.83"/>
	<rect x="2084" y="149.56" class="st4" width="4" height="23.83"/>
	<rect x="2088" y="149.56" class="st4" width="4" height="23.83"/>
	<rect x="2092" y="149.56" class="st4" width="4" height="23.83"/>
	<rect x="2096" y="149.56" class="st4" width="4" height="23.83"/>
	<rect x="2100" y="149.56" class="st4" width="4" height="23.83"/>
	<rect x="2104" y="149.56" class="st4" width="4" height="23.83"/>
	<rect x="2108" y="149.56" class="st4" width="4" height="23.83"/>
	<rect x="2112" y="149.56" class="st4" width="4" height="23.83"/>
	<rect x="2116" y="149.56" class="st4" width="4" height="23.83"/>
	<rect x="2120" y="149.56" class="st4" width="4" height="23.83"/>
	<rect x="2124" y="149.56" class="st4" width="4" height="23.83"/>
	<rect x="2128" y="149.56" class="st4" width="4" height="23.83"/>
	<rect x="2132" y="149.56" class="st4" width="4" height="23.83"/>
	<rect x="2136" y="149.56" class="st4" width="4" height="23.83"/>
	<rect x="2140" y="149.56" class="st4" width="4" height="23.83"/>
	<rect x="2144" y="149.56" class="st4" width="4" height="23.83"/>
	<rect x="2148" y="149.56" class="st4" width="4" height="23.83"/>
	<rect x="2152" y="149.56" class="st4" width="4" height="23.83"/>
	<rect x="2156" y="149.56" class="st4" width="4" height="23.83"/>
	<rect x="2160" y="149.56" class="st4" width="4" height="23.83"/>
	<rect x="2164" y="149.56" class="st4" width="4" height="23.83"/>
	<rect x="2168" y="149.56" class="st4" width="4" height="23.83"/>
	<rect x="2172" y="149.56" class="st4" width="4" height="23.83"/>
	<rect x="2176" y="149.56" class="st4" width="4" height="23.83"/>
	<rect x="2180" y="149.56" class="st4" width="4" height="23.83"/>
	<rect x="2184" y="149.56" class="st4" width="4" height="23.83"/>
	<rect x="2188" y="149.56" class="st4" width="4" height="23.83"/>
	<rect x="2192" y="149.56" class="st4" width="4" height="23.83"/>
	<rect x="2196" y="149.56" class="st4" width="4" height="23.83"/>
	<rect x="2200" y="149.56" class="st4" width="4" height="23.83"/>
	<rect x="2204" y="149.56" class="st4" width="4" height="23.83"/>
	<rect x="2208" y="149.56" class="st4" width="4" height="23.83"/>
	<rect x="2212" y="149.56" class="st4" width="4" height="23.83"/>
</g>
<rect x="80" y="149.56" class="st5" width="2136" height="23.83"/>
</svg>
