<?xml version="1.0" encoding="UTF-8"?>
<svg id="_图层_1" data-name="图层_1" xmlns="http://www.w3.org/2000/svg" version="1.1" viewBox="0 0 504 504">
  <!-- Generator: Adobe Illustrator 30.0.0, SVG Export Plug-In . SVG Version: 2.1.1 Build 123)  -->
  <defs>
    <style>
      .st0 {
        fill: #3b6ea8;
      }

      .st0, .st1 {
        fill-opacity: .8;
        stroke-miterlimit: 10;
        stroke-width: .7px;
      }

      .st0, .st1, .st2, .st3 {
        stroke: #000;
      }

      .st4 {
        fill: #4d4d4d;
      }

      .st1 {
        fill: #f58518;
      }

      .st5 {
        stroke: #333;
      }

      .st5, .st2 {
        stroke-width: 1.2px;
      }

      .st5, .st2, .st6, .st3 {
        stroke-linejoin: round;
      }

      .st5, .st2, .st3 {
        fill: none;
      }

      .st6 {
        fill: #202020;
        fill-opacity: .8;
        stroke: #202020;
        stroke-linecap: round;
        stroke-opacity: .8;
        stroke-width: .7px;
      }

      .st3 {
        stroke-width: 1.2px;
      }
    </style>
  </defs>
  <path class="st1" d="M71.7,54.8h333.1V20.9H71.7v33.9Z"/>
  <path class="st0" d="M71.7,104.7h312.2v-33.9H71.7v33.9Z"/>
  <path class="st0" d="M71.7,154.6h305.1v-33.9H71.7v33.9Z"/>
  <path class="st0" d="M71.7,204.4h266.2v-33.9H71.7v33.9Z"/>
  <path class="st0" d="M71.7,254.3h318.8v-33.9H71.7v33.9Z"/>
  <path class="st0" d="M71.7,304.1h318.1v-33.9H71.7v33.9Z"/>
  <path class="st0" d="M71.7,354h322.6v-33.9H71.7v33.9Z"/>
  <path class="st0" d="M71.7,403.8h219.8v-33.9H71.7v33.9Z"/>
  <path class="st0" d="M71.7,453.7h219.3v-33.9H71.7v33.9Z"/>
  <path class="st3" d="M418.1,42.4v-9"/>
  <path class="st3" d="M418.1,37.9h-26.7"/>
  <path class="st3" d="M391.4,42.4v-9"/>
  <path class="st3" d="M394.9,92.2v-9"/>
  <path class="st3" d="M394.9,87.7h-21.9"/>
  <path class="st3" d="M373,92.2v-9"/>
  <path class="st3" d="M381.2,142.1v-9"/>
  <path class="st3" d="M381.2,137.6h-8.7"/>
  <path class="st3" d="M372.5,142.1v-9"/>
  <path class="st3" d="M349.7,191.9v-9"/>
  <path class="st3" d="M349.7,187.5h-23.6"/>
  <path class="st3" d="M326.2,191.9v-9"/>
  <path class="st3" d="M405.2,241.8v-9"/>
  <path class="st3" d="M405.2,237.3h-29.4"/>
  <path class="st3" d="M375.8,241.8v-9"/>
  <path class="st3" d="M405.6,291.7v-9"/>
  <path class="st3" d="M405.6,287.2h-31.5"/>
  <path class="st3" d="M374,291.7v-9"/>
  <path class="st3" d="M411.6,341.5v-9"/>
  <path class="st3" d="M411.6,337h-34.7"/>
  <path class="st3" d="M376.9,341.5v-9"/>
  <path class="st3" d="M300.1,391.4v-9"/>
  <path class="st3" d="M300.1,386.9h-17.1"/>
  <path class="st3" d="M283,391.4v-9"/>
  <path class="st3" d="M293.2,441.2v-9"/>
  <path class="st3" d="M293.2,436.7h-4.4"/>
  <path class="st3" d="M288.8,441.2v-9"/>
  <path class="st6" d="M397,32.6c0,3.7-5.6,3.7-5.6,0s5.6-3.7,5.6,0"/>
  <path class="st6" d="M398.7,35.5c0,3.7-5.6,3.7-5.6,0s5.6-3.7,5.6,0"/>
  <path class="st6" d="M401.1,42.4c0,3.7-5.6,3.7-5.6,0s5.6-3.7,5.6,0"/>
  <path class="st6" d="M399.3,38.2c0,3.7-5.6,3.7-5.6,0s5.6-3.7,5.6,0"/>
  <path class="st6" d="M423.9,36.2c0,3.7-5.6,3.7-5.6,0s5.6-3.7,5.6,0"/>
  <path class="st6" d="M425.6,33.1c0,3.7-5.6,3.7-5.6,0s5.6-3.7,5.6,0"/>
  <path class="st6" d="M407.5,86c0,3.7-5.6,3.7-5.6,0s5.6-3.7,5.6,0"/>
  <path class="st6" d="M379.5,86.2c0,3.7-5.6,3.7-5.6,0s5.6-3.7,5.6,0"/>
  <path class="st6" d="M383,87.3c0,3.7-5.6,3.7-5.6,0s5.6-3.7,5.6,0"/>
  <path class="st6" d="M382.4,87c0,3.7-5.6,3.7-5.6,0s5.6-3.7,5.6,0"/>
  <path class="st6" d="M378.3,89.7c0,3.7-5.6,3.7-5.6,0s5.6-3.7,5.6,0"/>
  <path class="st6" d="M390,91.9c0,3.7-5.6,3.7-5.6,0s5.6-3.7,5.6,0"/>
  <path class="st6" d="M378.9,137.7c0,3.7-5.6,3.7-5.6,0s5.6-3.7,5.6,0"/>
  <path class="st6" d="M373.6,133c0,3.7-5.6,3.7-5.6,0s5.6-3.7,5.6,0"/>
  <path class="st6" d="M376.5,134.9c0,3.7-5.6,3.7-5.6,0s5.6-3.7,5.6,0"/>
  <path class="st6" d="M383.6,139c0,3.7-5.6,3.7-5.6,0s5.6-3.7,5.6,0"/>
  <path class="st6" d="M380.1,132.2c0,3.7-5.6,3.7-5.6,0s5.6-3.7,5.6,0"/>
  <path class="st6" d="M385.3,137.3c0,3.7-5.6,3.7-5.6,0s5.6-3.7,5.6,0"/>
  <path class="st6" d="M342.1,189.2c0,3.7-5.6,3.7-5.6,0s5.6-3.7,5.6,0"/>
  <path class="st6" d="M355.5,189.2c0,3.7-5.6,3.7-5.6,0s5.6-3.7,5.6,0"/>
  <path class="st6" d="M338.6,193.3c0,3.7-5.6,3.7-5.6,0s5.6-3.7,5.6,0"/>
  <path class="st6" d="M326.9,186c0,3.7-5.6,3.7-5.6,0s5.6-3.7,5.6,0"/>
  <path class="st6" d="M398.7,231.8c0,3.7-5.6,3.7-5.6,0s5.6-3.7,5.6,0"/>
  <path class="st6" d="M415.1,234.5c0,3.7-5.6,3.7-5.6,0s5.6-3.7,5.6,0"/>
  <path class="st6" d="M400.5,236.8c0,3.7-5.6,3.7-5.6,0s5.6-3.7,5.6,0"/>
  <path class="st6" d="M390,233.6c0,3.7-5.6,3.7-5.6,0s5.6-3.7,5.6,0"/>
  <path class="st6" d="M381.2,240.1c0,3.7-5.6,3.7-5.6,0s5.6-3.7,5.6,0"/>
  <path class="st6" d="M374.2,242.4c0,3.7-5.6,3.7-5.6,0s5.6-3.7,5.6,0"/>
  <path class="st6" d="M414.5,285.3c0,3.7-5.6,3.7-5.6,0s5.6-3.7,5.6,0"/>
  <path class="st6" d="M406.9,281.9c0,3.7-5.6,3.7-5.6,0s5.6-3.7,5.6,0"/>
  <path class="st6" d="M373.6,285.2c0,3.7-5.6,3.7-5.6,0s5.6-3.7,5.6,0"/>
  <path class="st6" d="M378.9,288.4c0,3.7-5.6,3.7-5.6,0s5.6-3.7,5.6,0"/>
  <path class="st6" d="M390,287.2c0,3.7-5.6,3.7-5.6,0s5.6-3.7,5.6,0"/>
  <path class="st6" d="M391.7,285.2c0,3.7-5.6,3.7-5.6,0s5.6-3.7,5.6,0"/>
  <path class="st6" d="M410.4,337c0,3.7-5.6,3.7-5.6,0s5.6-3.7,5.6,0"/>
  <path class="st6" d="M411,340.8c0,3.7-5.6,3.7-5.6,0s5.6-3.7,5.6,0"/>
  <path class="st6" d="M376.5,332.8c0,3.7-5.6,3.7-5.6,0s5.6-3.7,5.6,0"/>
  <path class="st6" d="M415.1,335.2c0,3.7-5.6,3.7-5.6,0s5.6-3.7,5.6,0"/>
  <path class="st6" d="M378.3,336.6c0,3.7-5.6,3.7-5.6,0s5.6-3.7,5.6,0"/>
  <path class="st6" d="M391.2,340c0,3.7-5.6,3.7-5.6,0s5.6-3.7,5.6,0"/>
  <path class="st6" d="M286,383.5c0,3.7-5.6,3.7-5.6,0s5.6-3.7,5.6,0"/>
  <path class="st6" d="M281.9,381.4c0,3.7-5.6,3.7-5.6,0s5.6-3.7,5.6,0"/>
  <path class="st6" d="M301.8,388.9c0,3.7-5.6,3.7-5.6,0s5.6-3.7,5.6,0"/>
  <path class="st6" d="M302.4,389.2c0,3.7-5.6,3.7-5.6,0s5.6-3.7,5.6,0"/>
  <path class="st6" d="M298.9,390.2c0,3.7-5.6,3.7-5.6,0s5.6-3.7,5.6,0"/>
  <path class="st6" d="M295.3,390.3c0,3.7-5.6,3.7-5.6,0s5.6-3.7,5.6,0"/>
  <path class="st6" d="M296.5,436.7c0,3.7-5.6,3.7-5.6,0s5.6-3.7,5.6,0"/>
  <path class="st6" d="M293,435.9c0,3.7-5.6,3.7-5.6,0s5.6-3.7,5.6,0"/>
  <path class="st6" d="M290.7,436.1c0,3.7-5.6,3.7-5.6,0s5.6-3.7,5.6,0"/>
  <path class="st6" d="M292.4,432.1c0,3.7-5.6,3.7-5.6,0s5.6-3.7,5.6,0"/>
  <path class="st6" d="M295.9,436.7c0,3.7-5.6,3.7-5.6,0s5.6-3.7,5.6,0"/>
  <path class="st6" d="M294.2,441.9c0,3.7-5.6,3.7-5.6,0s5.6-3.7,5.6,0"/>
  <g id="glyph-0-0">
    <path d="M419,80.9l-1.8.9,1.8,1-.3.5-1.6-1v1.8h-.5v-1.8l-1.6,1-.3-.5,1.8-1-1.8-.9.3-.5,1.6,1v-1.8h.5v1.8l1.6-1,.3.5Z"/>
  </g>
  <g>
    <g id="glyph-0-01" data-name="glyph-0-0">
      <path d="M394.3,130.8l-1.8.9,1.8,1-.3.5-1.6-1v1.8h-.5v-1.8l-1.6,1-.3-.5,1.8-1-1.8-.9.3-.5,1.6,1v-1.8h.5v1.8l1.6-1,.3.5Z"/>
    </g>
    <g id="glyph-0-02" data-name="glyph-0-0">
      <path d="M399.3,130.8l-1.8.9,1.8,1-.3.5-1.6-1v1.8h-.5v-1.8l-1.6,1-.3-.5,1.8-1-1.8-.9.3-.5,1.6,1v-1.8h.5v1.8l1.6-1,.3.5Z"/>
    </g>
  </g>
  <g>
    <g id="glyph-0-03" data-name="glyph-0-0">
      <path d="M362,180.6l-1.8.9,1.8,1-.3.5-1.6-1v1.8h-.5v-1.8l-1.6,1-.3-.5,1.8-1-1.8-.9.3-.5,1.6,1v-1.8h.5v1.8l1.6-1,.3.5Z"/>
    </g>
    <g id="glyph-0-04" data-name="glyph-0-0">
      <path d="M367,180.6l-1.8.9,1.8,1-.3.5-1.6-1v1.8h-.5v-1.8l-1.6,1-.3-.5,1.8-1-1.8-.9.3-.5,1.6,1v-1.8h.5v1.8l1.6-1,.3.5Z"/>
    </g>
    <g id="glyph-0-05" data-name="glyph-0-0">
      <path d="M372,180.6l-1.8.9,1.8,1-.3.5-1.6-1v1.8h-.5v-1.8l-1.6,1-.3-.5,1.8-1-1.8-.9.3-.5,1.6,1v-1.8h.5v1.8l1.6-1,.3.5Z"/>
    </g>
  </g>
  <g>
    <g id="glyph-0-1">
      <path d="M424.4,233.3v3.3h-.9v-3.2c0-.5-.1-.9-.3-1.2-.2-.3-.5-.4-.9-.4s-.9.2-1.1.5c-.3.3-.4.7-.4,1.2v3.1h-.9v-5.4h.9v.8c.2-.3.5-.6.8-.7.3-.2.6-.2,1-.2.6,0,1.1.2,1.4.6.3.4.5,1,.5,1.7Z"/>
    </g>
    <g id="glyph-0-2">
      <path d="M429.3,231.3v.8c-.2-.1-.5-.2-.8-.3-.3,0-.6-.1-.8-.1-.4,0-.8,0-1,.2-.2.1-.3.3-.3.6s0,.4.2.5c.2.1.5.2,1,.3h.3c.6.2,1.1.4,1.4.7.3.2.4.6.4,1s-.2.9-.6,1.2c-.4.3-.9.4-1.6.4s-.6,0-.9,0c-.3,0-.6-.1-1-.2v-.9c.3.2.6.3,1,.4.3,0,.6.1,1,.1s.7,0,1-.2c.2-.1.3-.3.3-.6s0-.4-.2-.5c-.2-.1-.5-.3-1.1-.4h-.3c-.6-.2-1-.4-1.2-.6-.2-.2-.4-.6-.4-1s.2-.9.5-1.2c.4-.3.9-.4,1.5-.4s.6,0,.9,0c.3,0,.6.1.8.2Z"/>
    </g>
  </g>
  <g>
    <g id="glyph-0-11" data-name="glyph-0-1">
      <path d="M423.8,283.1v3.3h-.9v-3.2c0-.5-.1-.9-.3-1.2-.2-.3-.5-.4-.9-.4s-.9.2-1.1.5c-.3.3-.4.7-.4,1.2v3.1h-.9v-5.4h.9v.8c.2-.3.5-.6.8-.7.3-.2.6-.2,1-.2.6,0,1.1.2,1.4.6.3.4.5,1,.5,1.7Z"/>
    </g>
    <g id="glyph-0-21" data-name="glyph-0-2">
      <path d="M428.7,281.1v.8c-.2-.1-.5-.2-.8-.3-.3,0-.6-.1-.8-.1-.4,0-.8,0-1,.2-.2.1-.3.3-.3.6s0,.4.2.5c.2.1.5.2,1,.3h.3c.6.2,1.1.4,1.4.7.3.2.4.6.4,1s-.2.9-.6,1.2c-.4.3-.9.4-1.6.4s-.6,0-.9,0c-.3,0-.6-.1-1-.2v-.9c.3.2.6.3,1,.4.3,0,.6.1,1,.1s.7,0,1-.2c.2-.1.3-.3.3-.6s0-.4-.2-.5c-.2-.1-.5-.3-1.1-.4h-.3c-.6-.2-1-.4-1.2-.6-.2-.2-.4-.6-.4-1s.2-.9.5-1.2c.4-.3.9-.4,1.5-.4s.6,0,.9,0c.3,0,.6.1.8.2Z"/>
    </g>
  </g>
  <g>
    <g id="glyph-0-12" data-name="glyph-0-1">
      <path d="M424.4,333v3.3h-.9v-3.2c0-.5-.1-.9-.3-1.2-.2-.3-.5-.4-.9-.4s-.9.2-1.1.5c-.3.3-.4.7-.4,1.2v3.1h-.9v-5.4h.9v.8c.2-.3.5-.6.8-.7.3-.2.6-.2,1-.2.6,0,1.1.2,1.4.6.3.4.5,1,.5,1.7Z"/>
    </g>
    <g id="glyph-0-22" data-name="glyph-0-2">
      <path d="M429.3,331v.8c-.2-.1-.5-.2-.8-.3-.3,0-.6-.1-.8-.1-.4,0-.8,0-1,.2-.2.1-.3.3-.3.6s0,.4.2.5c.2.1.5.2,1,.3h.3c.6.2,1.1.4,1.4.7.3.2.4.6.4,1s-.2.9-.6,1.2c-.4.3-.9.4-1.6.4s-.6,0-.9,0c-.3,0-.6-.1-1-.2v-.9c.3.2.6.3,1,.4.3,0,.6.1,1,.1s.7,0,1-.2c.2-.1.3-.3.3-.6s0-.4-.2-.5c-.2-.1-.5-.3-1.1-.4h-.3c-.6-.2-1-.4-1.2-.6-.2-.2-.4-.6-.4-1s.2-.9.5-1.2c.4-.3.9-.4,1.5-.4s.6,0,.9,0c.3,0,.6.1.8.2Z"/>
    </g>
  </g>
  <g>
    <g id="glyph-0-06" data-name="glyph-0-0">
      <path d="M309.4,380.1l-1.8.9,1.8,1-.3.5-1.6-1v1.8h-.5v-1.8l-1.6,1-.3-.5,1.8-1-1.8-.9.3-.5,1.6,1v-1.8h.5v1.8l1.6-1,.3.5Z"/>
    </g>
    <g id="glyph-0-07" data-name="glyph-0-0">
      <path d="M314.4,380.1l-1.8.9,1.8,1-.3.5-1.6-1v1.8h-.5v-1.8l-1.6,1-.3-.5,1.8-1-1.8-.9.3-.5,1.6,1v-1.8h.5v1.8l1.6-1,.3.5Z"/>
    </g>
    <g id="glyph-0-08" data-name="glyph-0-0">
      <path d="M319.4,380.1l-1.8.9,1.8,1-.3.5-1.6-1v1.8h-.5v-1.8l-1.6,1-.3-.5,1.8-1-1.8-.9.3-.5,1.6,1v-1.8h.5v1.8l1.6-1,.3.5Z"/>
    </g>
  </g>
  <g>
    <g id="glyph-0-09" data-name="glyph-0-0">
      <path d="M303,429.9l-1.8.9,1.8,1-.3.5-1.6-1v1.8h-.5v-1.8l-1.6,1-.3-.5,1.8-1-1.8-.9.3-.5,1.6,1v-1.8h.5v1.8l1.6-1,.3.5Z"/>
    </g>
    <g id="glyph-0-010" data-name="glyph-0-0">
      <path d="M308,429.9l-1.8.9,1.8,1-.3.5-1.6-1v1.8h-.5v-1.8l-1.6,1-.3-.5,1.8-1-1.8-.9.3-.5,1.6,1v-1.8h.5v1.8l1.6-1,.3.5Z"/>
    </g>
    <g id="glyph-0-011" data-name="glyph-0-0">
      <path d="M313,429.9l-1.8.9,1.8,1-.3.5-1.6-1v1.8h-.5v-1.8l-1.6,1-.3-.5,1.8-1-1.8-.9.3-.5,1.6,1v-1.8h.5v1.8l1.6-1,.3.5Z"/>
    </g>
  </g>
  <path class="st2" d="M52.4,466.7V8"/>
  <g>
    <g id="glyph-1-0">
      <path class="st4" d="M15.7,439.2v-1.9h-1.5v-.8h2.5v3c-.4.3-.8.5-1.2.6-.4.1-.9.2-1.4.2-1.1,0-2-.3-2.6-1-.6-.6-.9-1.5-.9-2.7s.3-2,.9-2.7c.6-.6,1.5-1,2.6-1s.9,0,1.3.2c.4.1.8.3,1.1.5v1c-.4-.3-.7-.5-1.1-.7-.4-.2-.8-.2-1.2-.2-.9,0-1.5.2-1.9.7-.4.5-.6,1.2-.6,2.1s.2,1.6.6,2.1c.4.5,1.1.7,1.9.7s.6,0,.9,0c.3,0,.5-.2.7-.3Z"/>
    </g>
    <g id="glyph-1-1">
      <path class="st4" d="M17.5,433.2h5.5v.7l-4.4,5.5h4.5v.8h-5.7v-.7l4.4-5.5h-4.3v-.8Z"/>
    </g>
    <g id="glyph-1-2">
      <path class="st4" d="M23.4,437.1h2.5v.8h-2.5v-.8Z"/>
    </g>
    <g id="glyph-1-3">
      <path class="st4" d="M27.8,439.4h3.3v.8h-4.4v-.8c.4-.4.8-.9,1.5-1.5.6-.6,1-1,1.2-1.2.3-.3.5-.6.6-.9.1-.2.2-.5.2-.7,0-.4-.1-.7-.4-.9-.3-.2-.6-.4-1-.4s-.6,0-1,.2c-.3.1-.7.3-1,.5v-1c.4-.2.7-.3,1.1-.3.3,0,.6-.1.9-.1.7,0,1.3.2,1.7.5.4.4.7.9.7,1.5s0,.6-.2.8c-.1.2-.3.6-.6.9,0,0-.3.3-.8.8-.4.4-1,1-1.8,1.8Z"/>
    </g>
    <g id="glyph-1-21" data-name="glyph-1-2">
      <path class="st4" d="M32.4,437.1h2.5v.8h-2.5v-.8Z"/>
    </g>
    <g id="glyph-1-31" data-name="glyph-1-3">
      <path class="st4" d="M36.8,439.4h3.3v.8h-4.4v-.8c.4-.4.8-.9,1.5-1.5.6-.6,1-1,1.2-1.2.3-.3.5-.6.6-.9.1-.2.2-.5.2-.7,0-.4-.1-.7-.4-.9-.3-.2-.6-.4-1-.4s-.6,0-1,.2c-.3.1-.7.3-1,.5v-1c.4-.2.7-.3,1.1-.3.3,0,.6-.1.9-.1.7,0,1.3.2,1.7.5.4.4.7.9.7,1.5s0,.6-.2.8c-.1.2-.3.6-.6.9,0,0-.3.3-.8.8-.4.4-1,1-1.8,1.8Z"/>
    </g>
    <g id="glyph-1-32" data-name="glyph-1-3">
      <path class="st4" d="M42.8,439.4h3.3v.8h-4.4v-.8c.4-.4.8-.9,1.5-1.5.6-.6,1-1,1.2-1.2.3-.3.5-.6.6-.9.1-.2.2-.5.2-.7,0-.4-.1-.7-.4-.9-.3-.2-.6-.4-1-.4s-.6,0-1,.2c-.3.1-.7.3-1,.5v-1c.4-.2.7-.3,1.1-.3.3,0,.6-.1.9-.1.7,0,1.3.2,1.7.5.4.4.7.9.7,1.5s0,.6-.2.8c-.1.2-.3.6-.6.9,0,0-.3.3-.8.8-.4.4-1,1-1.8,1.8Z"/>
    </g>
  </g>
  <g>
    <g id="glyph-1-01" data-name="glyph-1-0">
      <path class="st4" d="M21.7,389.3v-1.9h-1.5v-.8h2.5v3c-.4.3-.8.5-1.2.6-.4.1-.9.2-1.4.2-1.1,0-2-.3-2.6-1-.6-.6-.9-1.5-.9-2.7s.3-2,.9-2.7c.6-.6,1.5-1,2.6-1s.9,0,1.3.2c.4.1.8.3,1.1.5v1c-.4-.3-.7-.5-1.1-.7-.4-.2-.8-.2-1.2-.2-.9,0-1.5.2-1.9.7-.4.5-.6,1.2-.6,2.1s.2,1.6.6,2.1c.4.5,1.1.7,1.9.7s.6,0,.9,0c.3,0,.5-.2.7-.3Z"/>
    </g>
    <g id="glyph-1-11" data-name="glyph-1-1">
      <path class="st4" d="M23.5,383.3h5.5v.7l-4.4,5.5h4.5v.8h-5.7v-.7l4.4-5.5h-4.3v-.8Z"/>
    </g>
    <g id="glyph-1-22" data-name="glyph-1-2">
      <path class="st4" d="M29.4,387.3h2.5v.8h-2.5v-.8Z"/>
    </g>
    <g id="glyph-1-4">
      <path class="st4" d="M33,383.3h3.7v.8h-2.8v1.7c.1,0,.3,0,.4,0,.1,0,.3,0,.4,0,.8,0,1.4.2,1.9.6.5.4.7,1,.7,1.7s-.2,1.4-.7,1.8c-.5.4-1.1.6-2,.6s-.6,0-.9,0c-.3,0-.6-.1-1-.2v-1c.3.1.6.3.9.3.3,0,.6.1,1,.1.5,0,1-.1,1.3-.4.3-.3.5-.7.5-1.2s-.2-.9-.5-1.1c-.3-.3-.7-.4-1.3-.4s-.5,0-.8,0c-.2,0-.5.1-.8.2v-3.5Z"/>
    </g>
    <g id="glyph-1-23" data-name="glyph-1-2">
      <path class="st4" d="M38.4,387.3h2.5v.8h-2.5v-.8Z"/>
    </g>
    <g id="glyph-1-5">
      <path class="st4" d="M44.6,384.1l-2.4,3.7h2.4v-3.7ZM44.3,383.3h1.2v4.6h1v.8h-1v1.7h-.9v-1.7h-3.2v-.9l2.9-4.4Z"/>
    </g>
  </g>
  <g>
    <g id="glyph-1-02" data-name="glyph-1-0">
      <path class="st4" d="M21.7,339.4v-1.9h-1.5v-.8h2.5v3c-.4.3-.8.5-1.2.6-.4.1-.9.2-1.4.2-1.1,0-2-.3-2.6-1-.6-.6-.9-1.5-.9-2.7s.3-2,.9-2.7c.6-.6,1.5-1,2.6-1s.9,0,1.3.2c.4.1.8.3,1.1.5v1c-.4-.3-.7-.5-1.1-.7-.4-.2-.8-.2-1.2-.2-.9,0-1.5.2-1.9.7-.4.5-.6,1.2-.6,2.1s.2,1.6.6,2.1c.4.5,1.1.7,1.9.7s.6,0,.9,0c.3,0,.5-.2.7-.3Z"/>
    </g>
    <g id="glyph-1-12" data-name="glyph-1-1">
      <path class="st4" d="M23.5,333.4h5.5v.7l-4.4,5.5h4.5v.8h-5.7v-.7l4.4-5.5h-4.3v-.8Z"/>
    </g>
    <g id="glyph-1-24" data-name="glyph-1-2">
      <path class="st4" d="M29.4,337.4h2.5v.8h-2.5v-.8Z"/>
    </g>
    <g id="glyph-1-6">
      <path class="st4" d="M32.8,333.4h4.5v.4l-2.5,6.6h-1l2.4-6.2h-3.4v-.8Z"/>
    </g>
    <g id="glyph-1-25" data-name="glyph-1-2">
      <path class="st4" d="M38.4,337.4h2.5v.8h-2.5v-.8Z"/>
    </g>
    <g id="glyph-1-7">
      <path class="st4" d="M42,340.3v-.9c.2.1.5.2.7.2.2,0,.5,0,.7,0,.6,0,1.1-.2,1.4-.6.3-.4.5-1.1.6-1.9-.2.3-.4.5-.7.6-.3.1-.6.2-.9.2-.7,0-1.2-.2-1.7-.6-.4-.4-.6-1-.6-1.7s.2-1.3.6-1.7c.4-.4,1-.7,1.7-.7s1.4.3,1.8.9c.4.6.6,1.5.6,2.7s-.3,2-.8,2.6c-.5.7-1.2,1-2.1,1s-.5,0-.7,0c-.2,0-.5-.1-.8-.2ZM43.9,337.3c.4,0,.8-.1,1-.4.2-.3.4-.7.4-1.2s-.1-.9-.4-1.2c-.2-.3-.6-.4-1-.4s-.8.1-1,.4c-.2.3-.4.7-.4,1.2s.1.9.4,1.2c.2.3.6.4,1,.4Z"/>
    </g>
  </g>
  <g>
    <g id="glyph-1-03" data-name="glyph-1-0">
      <path class="st4" d="M15.7,289.6v-1.9h-1.5v-.8h2.5v3c-.4.3-.8.5-1.2.6-.4.1-.9.2-1.4.2-1.1,0-2-.3-2.6-1-.6-.6-.9-1.5-.9-2.7s.3-2,.9-2.7c.6-.6,1.5-1,2.6-1s.9,0,1.3.2c.4.1.8.3,1.1.5v1c-.4-.3-.7-.5-1.1-.7-.4-.2-.8-.2-1.2-.2-.9,0-1.5.2-1.9.7-.4.5-.6,1.2-.6,2.1s.2,1.6.6,2.1c.4.5,1.1.7,1.9.7s.6,0,.9,0c.3,0,.5-.2.7-.3Z"/>
    </g>
    <g id="glyph-1-13" data-name="glyph-1-1">
      <path class="st4" d="M17.5,283.6h5.5v.7l-4.4,5.5h4.5v.8h-5.7v-.7l4.4-5.5h-4.3v-.8Z"/>
    </g>
    <g id="glyph-1-26" data-name="glyph-1-2">
      <path class="st4" d="M23.4,287.6h2.5v.8h-2.5v-.8Z"/>
    </g>
    <g id="glyph-1-61" data-name="glyph-1-6">
      <path class="st4" d="M26.8,283.6h4.5v.4l-2.5,6.6h-1l2.4-6.2h-3.4v-.8Z"/>
    </g>
    <g id="glyph-1-27" data-name="glyph-1-2">
      <path class="st4" d="M32.4,287.6h2.5v.8h-2.5v-.8Z"/>
    </g>
    <g id="glyph-1-8">
      <path class="st4" d="M36.2,289.8h1.5v-5.3l-1.7.3v-.9l1.7-.3h1v6.2h1.5v.8h-4v-.8Z"/>
    </g>
    <g id="glyph-1-62" data-name="glyph-1-6">
      <path class="st4" d="M41.8,283.6h4.5v.4l-2.5,6.6h-1l2.4-6.2h-3.4v-.8Z"/>
    </g>
  </g>
  <g>
    <g id="glyph-1-9">
      <path class="st4" d="M11,234.4c-.5,0-.9.2-1.1.7-.2.5-.4,1.2-.4,2.2s.1,1.7.4,2.2c.2.5.6.7,1.1.7s.9-.2,1.1-.7c.2-.5.4-1.2.4-2.2s-.1-1.7-.4-2.2c-.2-.5-.6-.7-1.1-.7ZM11,233.6c.8,0,1.4.3,1.8.9.4.6.6,1.5.6,2.7s-.2,2.1-.6,2.7c-.4.6-1,.9-1.8.9s-1.4-.3-1.8-.9c-.4-.6-.6-1.5-.6-2.7s.2-2.1.6-2.7c.4-.6,1-.9,1.8-.9Z"/>
    </g>
    <g id="glyph-1-71" data-name="glyph-1-7">
      <path class="st4" d="M15,240.6v-.9c.2.1.5.2.7.2.2,0,.5,0,.7,0,.6,0,1.1-.2,1.4-.6.3-.4.5-1.1.6-1.9-.2.3-.4.5-.7.6-.3.1-.6.2-.9.2-.7,0-1.2-.2-1.7-.6-.4-.4-.6-1-.6-1.7s.2-1.3.6-1.7c.4-.4,1-.7,1.7-.7s1.4.3,1.8.9c.4.6.6,1.5.6,2.7s-.3,2-.8,2.6c-.5.7-1.2,1-2.1,1s-.5,0-.7,0c-.2,0-.5-.1-.8-.2ZM16.9,237.6c.4,0,.8-.1,1-.4.2-.3.4-.7.4-1.2s-.1-.9-.4-1.2c-.2-.3-.6-.4-1-.4s-.8.1-1,.4c-.2.3-.4.7-.4,1.2s.1.9.4,1.2c.2.3.6.4,1,.4Z"/>
    </g>
    <g id="glyph-1-81" data-name="glyph-1-8">
      <path class="st4" d="M21.2,239.9h1.5v-5.3l-1.7.3v-.9l1.7-.3h1v6.2h1.5v.8h-4v-.8Z"/>
    </g>
    <g id="glyph-1-33" data-name="glyph-1-3">
      <path class="st4" d="M27.8,239.9h3.3v.8h-4.4v-.8c.4-.4.8-.9,1.5-1.5.6-.6,1-1,1.2-1.2.3-.3.5-.6.6-.9.1-.2.2-.5.2-.7,0-.4-.1-.7-.4-.9-.3-.2-.6-.4-1-.4s-.6,0-1,.2c-.3.1-.7.3-1,.5v-1c.4-.2.7-.3,1.1-.3.3,0,.6-.1.9-.1.7,0,1.3.2,1.7.5.4.4.7.9.7,1.5s0,.6-.2.8c-.1.2-.3.6-.6.9,0,0-.3.3-.8.8-.4.4-1,1-1.8,1.8Z"/>
    </g>
    <g id="glyph-1-28" data-name="glyph-1-2">
      <path class="st4" d="M32.4,237.7h2.5v.8h-2.5v-.8Z"/>
    </g>
    <g id="glyph-1-82" data-name="glyph-1-8">
      <path class="st4" d="M36.2,239.9h1.5v-5.3l-1.7.3v-.9l1.7-.3h1v6.2h1.5v.8h-4v-.8Z"/>
    </g>
    <g id="glyph-1-51" data-name="glyph-1-5">
      <path class="st4" d="M44.6,234.6l-2.4,3.7h2.4v-3.7ZM44.3,233.7h1.2v4.6h1v.8h-1v1.7h-.9v-1.7h-3.2v-.9l2.9-4.4Z"/>
    </g>
  </g>
  <g>
    <g id="glyph-1-04" data-name="glyph-1-0">
      <path class="st4" d="M15.7,189.9v-1.9h-1.5v-.8h2.5v3c-.4.3-.8.5-1.2.6-.4.1-.9.2-1.4.2-1.1,0-2-.3-2.6-1-.6-.6-.9-1.5-.9-2.7s.3-2,.9-2.7c.6-.6,1.5-1,2.6-1s.9,0,1.3.2c.4.1.8.3,1.1.5v1c-.4-.3-.7-.5-1.1-.7-.4-.2-.8-.2-1.2-.2-.9,0-1.5.2-1.9.7-.4.5-.6,1.2-.6,2.1s.2,1.6.6,2.1c.4.5,1.1.7,1.9.7s.6,0,.9,0c.3,0,.5-.2.7-.3Z"/>
    </g>
    <g id="glyph-1-14" data-name="glyph-1-1">
      <path class="st4" d="M17.5,183.9h5.5v.7l-4.4,5.5h4.5v.8h-5.7v-.7l4.4-5.5h-4.3v-.8Z"/>
    </g>
    <g id="glyph-1-29" data-name="glyph-1-2">
      <path class="st4" d="M23.4,187.9h2.5v.8h-2.5v-.8Z"/>
    </g>
    <g id="glyph-1-34" data-name="glyph-1-3">
      <path class="st4" d="M27.8,190.1h3.3v.8h-4.4v-.8c.4-.4.8-.9,1.5-1.5.6-.6,1-1,1.2-1.2.3-.3.5-.6.6-.9.1-.2.2-.5.2-.7,0-.4-.1-.7-.4-.9-.3-.2-.6-.4-1-.4s-.6,0-1,.2c-.3.1-.7.3-1,.5v-1c.4-.2.7-.3,1.1-.3.3,0,.6-.1.9-.1.7,0,1.3.2,1.7.5.4.4.7.9.7,1.5s0,.6-.2.8c-.1.2-.3.6-.6.9,0,0-.3.3-.8.8-.4.4-1,1-1.8,1.8Z"/>
    </g>
    <g id="glyph-1-210" data-name="glyph-1-2">
      <path class="st4" d="M32.4,187.9h2.5v.8h-2.5v-.8Z"/>
    </g>
    <g id="glyph-1-83" data-name="glyph-1-8">
      <path class="st4" d="M36.2,190.1h1.5v-5.3l-1.7.3v-.9l1.7-.3h1v6.2h1.5v.8h-4v-.8Z"/>
    </g>
    <g id="glyph-1-91" data-name="glyph-1-9">
      <path class="st4" d="M44,184.5c-.5,0-.9.2-1.1.7-.2.5-.4,1.2-.4,2.2s.1,1.7.4,2.2c.2.5.6.7,1.1.7s.9-.2,1.1-.7c.2-.5.4-1.2.4-2.2s-.1-1.7-.4-2.2c-.2-.5-.6-.7-1.1-.7ZM44,183.7c.8,0,1.4.3,1.8.9.4.6.6,1.5.6,2.7s-.2,2.1-.6,2.7c-.4.6-1,.9-1.8.9s-1.4-.3-1.8-.9c-.4-.6-.6-1.5-.6-2.7s.2-2.1.6-2.7c.4-.6,1-.9,1.8-.9Z"/>
    </g>
  </g>
  <g>
    <g id="glyph-1-05" data-name="glyph-1-0">
      <path class="st4" d="M15.7,140v-1.9h-1.5v-.8h2.5v3c-.4.3-.8.5-1.2.6-.4.1-.9.2-1.4.2-1.1,0-2-.3-2.6-1-.6-.6-.9-1.5-.9-2.7s.3-2,.9-2.7c.6-.6,1.5-1,2.6-1s.9,0,1.3.2c.4.1.8.3,1.1.5v1c-.4-.3-.7-.5-1.1-.7-.4-.2-.8-.2-1.2-.2-.9,0-1.5.2-1.9.7-.4.5-.6,1.2-.6,2.1s.2,1.6.6,2.1c.4.5,1.1.7,1.9.7s.6,0,.9,0c.3,0,.5-.2.7-.3Z"/>
    </g>
    <g id="glyph-1-15" data-name="glyph-1-1">
      <path class="st4" d="M17.5,134h5.5v.7l-4.4,5.5h4.5v.8h-5.7v-.7l4.4-5.5h-4.3v-.8Z"/>
    </g>
    <g id="glyph-1-211" data-name="glyph-1-2">
      <path class="st4" d="M23.4,138h2.5v.8h-2.5v-.8Z"/>
    </g>
    <g id="glyph-1-35" data-name="glyph-1-3">
      <path class="st4" d="M27.8,140.2h3.3v.8h-4.4v-.8c.4-.4.8-.9,1.5-1.5.6-.6,1-1,1.2-1.2.3-.3.5-.6.6-.9.1-.2.2-.5.2-.7,0-.4-.1-.7-.4-.9-.3-.2-.6-.4-1-.4s-.6,0-1,.2c-.3.1-.7.3-1,.5v-1c.4-.2.7-.3,1.1-.3.3,0,.6-.1.9-.1.7,0,1.3.2,1.7.5.4.4.7.9.7,1.5s0,.6-.2.8c-.1.2-.3.6-.6.9,0,0-.3.3-.8.8-.4.4-1,1-1.8,1.8Z"/>
    </g>
    <g id="glyph-1-212" data-name="glyph-1-2">
      <path class="st4" d="M32.4,138h2.5v.8h-2.5v-.8Z"/>
    </g>
    <g id="glyph-1-84" data-name="glyph-1-8">
      <path class="st4" d="M36.2,140.2h1.5v-5.3l-1.7.3v-.9l1.7-.3h1v6.2h1.5v.8h-4v-.8Z"/>
    </g>
    <g id="glyph-1-85" data-name="glyph-1-8">
      <path class="st4" d="M42.2,140.2h1.5v-5.3l-1.7.3v-.9l1.7-.3h1v6.2h1.5v.8h-4v-.8Z"/>
    </g>
  </g>
  <g>
    <g id="glyph-1-06" data-name="glyph-1-0">
      <path class="st4" d="M21.7,90.2v-1.9h-1.5v-.8h2.5v3c-.4.3-.8.5-1.2.6-.4.1-.9.2-1.4.2-1.1,0-2-.3-2.6-1-.6-.6-.9-1.5-.9-2.7s.3-2,.9-2.7c.6-.6,1.5-1,2.6-1s.9,0,1.3.2c.4.1.8.3,1.1.5v1c-.4-.3-.7-.5-1.1-.7-.4-.2-.8-.2-1.2-.2-.9,0-1.5.2-1.9.7-.4.5-.6,1.2-.6,2.1s.2,1.6.6,2.1c.4.5,1.1.7,1.9.7s.6,0,.9,0c.3,0,.5-.2.7-.3Z"/>
    </g>
    <g id="glyph-1-16" data-name="glyph-1-1">
      <path class="st4" d="M23.5,84.2h5.5v.7l-4.4,5.5h4.5v.8h-5.7v-.7l4.4-5.5h-4.3v-.8Z"/>
    </g>
    <g id="glyph-1-213" data-name="glyph-1-2">
      <path class="st4" d="M29.4,88.1h2.5v.8h-2.5v-.8Z"/>
    </g>
    <g id="glyph-1-10">
      <path class="st4" d="M35.9,87.4c.5,0,.8.3,1.1.6.2.3.4.7.4,1.1,0,.7-.2,1.2-.7,1.6-.5.4-1.1.6-2,.6s-.6,0-.9,0c-.3,0-.6-.1-1-.2v-.9c.3.2.5.3.9.4.3,0,.6.1,1,.1.6,0,1-.1,1.3-.3.3-.2.5-.6.5-1s-.1-.7-.4-1c-.3-.2-.7-.3-1.2-.3h-.8v-.8h.9c.5,0,.8,0,1.1-.3s.4-.5.4-.8-.1-.6-.4-.8c-.2-.2-.6-.3-1.1-.3s-.5,0-.8,0c-.3,0-.6.1-1,.2v-.8c.4,0,.7-.2,1-.2.3,0,.6,0,.9,0,.7,0,1.3.2,1.7.5.4.3.6.8.6,1.3s-.1.7-.3,1c-.2.3-.5.5-.9.6Z"/>
    </g>
    <g id="glyph-1-214" data-name="glyph-1-2">
      <path class="st4" d="M38.4,88.1h2.5v.8h-2.5v-.8Z"/>
    </g>
    <g id="glyph-1-41" data-name="glyph-1-4">
      <path class="st4" d="M42,84.2h3.7v.8h-2.8v1.7c.1,0,.3,0,.4,0,.1,0,.3,0,.4,0,.8,0,1.4.2,1.9.6.5.4.7,1,.7,1.7s-.2,1.4-.7,1.8c-.5.4-1.1.6-2,.6s-.6,0-.9,0c-.3,0-.6-.1-1-.2v-1c.3.1.6.3.9.3.3,0,.6.1,1,.1.5,0,1-.1,1.3-.4.3-.3.5-.7.5-1.2s-.2-.9-.5-1.1c-.3-.3-.7-.4-1.3-.4s-.5,0-.8,0c-.2,0-.5.1-.8.2v-3.5Z"/>
    </g>
  </g>
  <g>
    <g id="uuid-d7c428be-be94-49b5-9c9f-18667c13da61" data-name="glyph-1-11">
      <path class="st4" d="M40.1,34.8v1c-.3-.3-.7-.5-1-.7-.4-.1-.7-.2-1.1-.2-.8,0-1.4.2-1.8.7-.4.5-.6,1.2-.6,2.1s.2,1.6.6,2.1c.4.5,1,.7,1.8.7s.8,0,1.1-.2c.4-.1.7-.4,1-.7v1c-.3.2-.7.4-1,.5-.4.1-.8.2-1.2.2-1.1,0-1.9-.3-2.5-1-.6-.7-.9-1.5-.9-2.7s.3-2,.9-2.7c.6-.7,1.5-1,2.5-1s.8,0,1.2.2c.4.1.7.3,1,.5Z"/>
    </g>
    <g id="uuid-5cb56ae8-38d2-41da-a287-7cc8fb27ee98" data-name="glyph-1-12">
      <path class="st4" d="M41.9,34.3h1v3l3.1-3h1.2l-3.5,3.3,3.7,3.7h-1.2l-3.4-3.4v3.4h-1v-7Z"/>
    </g>
  </g>
  <path class="st5" d="M49.4,436.7h3"/>
  <path class="st5" d="M49.4,386.9h3"/>
  <path class="st5" d="M49.4,337h3"/>
  <path class="st5" d="M49.4,287.2h3"/>
  <path class="st5" d="M49.4,237.3h3"/>
  <path class="st5" d="M49.4,187.5h3"/>
  <path class="st5" d="M49.4,137.6h3"/>
  <path class="st5" d="M49.4,87.7h3"/>
  <path class="st5" d="M49.4,37.9h3"/>
  <path class="st2" d="M52.4,466.7h437.7"/>
  <path class="st5" d="M71.7,469.6v-3"/>
  <path class="st5" d="M188.6,469.6v-3"/>
  <path class="st5" d="M305.4,469.6v-3"/>
  <path class="st5" d="M422.2,469.6v-3"/>
  <g id="glyph-1-92" data-name="glyph-1-9">
    <path class="st4" d="M71.8,472.6c-.5,0-.9.2-1.1.7-.2.5-.4,1.2-.4,2.2s.1,1.7.4,2.2c.2.5.6.7,1.1.7s.9-.2,1.1-.7c.2-.5.4-1.2.4-2.2s-.1-1.7-.4-2.2c-.2-.5-.6-.7-1.1-.7ZM71.8,471.8c.8,0,1.4.3,1.8.9.4.6.6,1.5.6,2.7s-.2,2.1-.6,2.7c-.4.6-1,.9-1.8.9s-1.4-.3-1.8-.9c-.4-.6-.6-1.5-.6-2.7s.2-2.1.6-2.7c.4-.6,1-.9,1.8-.9Z"/>
  </g>
  <g id="glyph-1-36" data-name="glyph-1-3">
    <path class="st4" d="M187.4,478.2h3.3v.8h-4.4v-.8c.4-.4.8-.9,1.5-1.5.6-.6,1-1,1.2-1.2.3-.3.5-.6.6-.9.1-.2.2-.5.2-.7,0-.4-.1-.7-.4-.9-.3-.2-.6-.4-1-.4s-.6,0-1,.2c-.3.1-.7.3-1,.5v-1c.4-.2.7-.3,1.1-.3.3,0,.6-.1.9-.1.7,0,1.3.2,1.7.5.4.4.7.9.7,1.5s0,.6-.2.8c-.1.2-.3.6-.6.9,0,0-.3.3-.8.8-.4.4-1,1-1.8,1.8Z"/>
  </g>
  <g id="glyph-1-52" data-name="glyph-1-5">
    <path class="st4" d="M306,472.8l-2.4,3.7h2.4v-3.7ZM305.8,472h1.2v4.6h1v.8h-1v1.7h-.9v-1.7h-3.2v-.9l2.9-4.4Z"/>
  </g>
  <g id="uuid-d3c8b165-edb4-4772-a8d7-cd565594f591" data-name="glyph-1-13">
    <path class="st4" d="M422.4,475.1c-.4,0-.8.1-1,.4-.2.3-.4.7-.4,1.2s.1.9.4,1.2c.2.3.6.4,1,.4s.8-.1,1-.4c.2-.3.4-.7.4-1.2s-.1-.9-.4-1.2c-.2-.3-.6-.4-1-.4ZM424.3,472.1v.9c-.2-.1-.5-.2-.7-.2-.2,0-.5,0-.7,0-.6,0-1.1.2-1.4.6-.3.4-.5,1.1-.6,1.9.2-.3.4-.5.7-.6.3-.1.6-.2.9-.2.7,0,1.3.2,1.7.6.4.4.6,1,.6,1.7s-.2,1.3-.6,1.7c-.4.4-1,.7-1.7.7s-1.4-.3-1.9-.9c-.4-.6-.6-1.5-.6-2.7s.3-2,.8-2.6c.5-.7,1.2-1,2.1-1s.5,0,.7,0c.2,0,.5.1.8.2Z"/>
  </g>
  <g>
    <g id="glyph-2-0">
      <path d="M210.3,490.9v-2.3h-1.9v-1h3.1v3.8c-.5.3-1,.6-1.5.7-.5.2-1.1.2-1.8.2-1.4,0-2.4-.4-3.2-1.2-.8-.8-1.2-1.9-1.2-3.3s.4-2.6,1.2-3.3c.8-.8,1.8-1.2,3.2-1.2s1.1,0,1.6.2c.5.1,1,.3,1.4.6v1.3c-.4-.4-.9-.7-1.4-.8-.5-.2-1-.3-1.5-.3-1.1,0-1.9.3-2.4.9-.5.6-.8,1.5-.8,2.7s.3,2.1.8,2.7c.5.6,1.3.9,2.4.9s.8,0,1.1-.1c.3,0,.6-.2.9-.3Z"/>
    </g>
    <g id="glyph-2-1">
      <path d="M217.1,486.6c-.1,0-.3-.1-.4-.1-.1,0-.3,0-.5,0-.6,0-1.1.2-1.4.6-.3.4-.5,1-.5,1.7v3.5h-1.1v-6.6h1.1v1c.2-.4.5-.7.9-.9.4-.2.8-.3,1.3-.3s.1,0,.2,0c0,0,.2,0,.3,0v1.1Z"/>
    </g>
    <g id="glyph-2-2">
      <path d="M220.9,486.4c-.6,0-1,.2-1.4.7-.3.4-.5,1.1-.5,1.8s.2,1.4.5,1.9c.3.4.8.7,1.4.7s1-.2,1.4-.7c.3-.5.5-1.1.5-1.9s-.2-1.4-.5-1.8c-.3-.5-.8-.7-1.4-.7ZM220.9,485.5c.9,0,1.7.3,2.2.9.5.6.8,1.4.8,2.5s-.3,1.9-.8,2.5c-.5.6-1.3.9-2.2.9s-1.7-.3-2.2-.9c-.5-.6-.8-1.5-.8-2.5s.3-1.9.8-2.5c.5-.6,1.3-.9,2.2-.9Z"/>
    </g>
    <g id="glyph-2-3">
      <path d="M224.7,485.6h1.1l1.4,5.1,1.3-5.1h1.3l1.3,5.1,1.3-5.1h1.1l-1.7,6.6h-1.3l-1.4-5.4-1.4,5.4h-1.3l-1.7-6.6Z"/>
    </g>
    <g id="glyph-2-4">
      <path d="M236.4,483.7v1.9h2.2v.8h-2.2v3.6c0,.5,0,.9.2,1,.1.1.4.2.9.2h1.1v.9h-1.1c-.8,0-1.4-.2-1.7-.5-.3-.3-.5-.9-.5-1.7v-3.6h-.8v-.8h.8v-1.9h1.1Z"/>
    </g>
    <g id="glyph-2-5">
      <path d="M245.8,488.2v4h-1.1v-3.9c0-.6-.1-1.1-.4-1.4-.2-.3-.6-.5-1.1-.5s-1,.2-1.4.6c-.3.4-.5.9-.5,1.5v3.7h-1.1v-9.1h1.1v3.6c.3-.4.6-.7.9-.9.4-.2.8-.3,1.2-.3.8,0,1.3.2,1.7.7.4.5.6,1.1.6,2Z"/>
    </g>
    <g id="glyph-2-7">
      <path d="M253.6,484.4v6.8h1.4c1.2,0,2.1-.3,2.6-.8.6-.6.8-1.4.8-2.6s-.3-2-.8-2.6c-.6-.6-1.4-.8-2.6-.8h-1.4ZM252.4,483.4h2.4c1.7,0,2.9.4,3.7,1.1.8.7,1.2,1.8,1.2,3.3s-.4,2.6-1.2,3.3c-.8.7-2,1.1-3.7,1.1h-2.4v-8.8Z"/>
    </g>
    <g id="glyph-2-8">
      <path d="M261.3,485.6h1.1v6.6h-1.1v-6.6ZM261.3,483h1.1v1.4h-1.1v-1.4Z"/>
    </g>
    <g id="glyph-2-9">
      <path d="M267.3,488.9c-.9,0-1.5.1-1.8.3-.3.2-.5.5-.5,1s.1.7.4.9c.3.2.6.3,1,.3s1.1-.2,1.4-.6c.4-.4.5-1,.5-1.7v-.2h-1.1ZM269.5,488.4v3.8h-1.1v-1c-.2.4-.6.7-.9.9-.4.2-.8.3-1.3.3s-1.2-.2-1.6-.6c-.4-.4-.6-.9-.6-1.5s.2-1.3.7-1.7c.5-.4,1.2-.6,2.2-.6h1.5c0-.6-.2-1-.5-1.3-.3-.3-.8-.4-1.4-.4s-.7,0-1.1.1c-.4,0-.7.2-1,.4v-1c.4-.2.8-.3,1.1-.3.4,0,.7-.1,1.1-.1.9,0,1.7.2,2.1.7.5.5.7,1.2.7,2.2Z"/>
    </g>
    <g id="glyph-2-10">
      <path d="M276.4,486.9c.3-.5.6-.8,1-1.1.4-.2.8-.3,1.3-.3s1.2.2,1.6.7c.4.5.6,1.2.6,2v4h-1.1v-3.9c0-.6-.1-1.1-.3-1.4-.2-.3-.6-.5-1-.5s-1,.2-1.3.6c-.3.4-.5.9-.5,1.5v3.7h-1.1v-3.9c0-.6-.1-1.1-.3-1.4-.2-.3-.6-.5-1-.5s-1,.2-1.3.6c-.3.4-.5.9-.5,1.5v3.7h-1.1v-6.6h1.1v1c.2-.4.5-.7.9-.9.3-.2.8-.3,1.2-.3s.9.1,1.2.4c.3.2.6.6.7,1.1Z"/>
    </g>
    <g id="glyph-2-11">
      <path d="M288.9,488.6v.5h-5c0,.8.3,1.3.7,1.7.4.4,1,.6,1.7.6s.8,0,1.2-.1c.4-.1.8-.3,1.2-.5v1c-.4.2-.8.3-1.2.4-.4,0-.8.1-1.2.1-1,0-1.9-.3-2.5-.9-.6-.6-.9-1.4-.9-2.5s.3-1.9.9-2.5c.6-.6,1.4-1,2.3-1s1.6.3,2.1.9c.5.6.8,1.3.8,2.3ZM287.9,488.3c0-.6-.2-1.1-.5-1.4-.3-.4-.8-.5-1.3-.5s-1.1.2-1.5.5c-.4.3-.6.8-.6,1.4h3.8Z"/>
    </g>
    <g id="glyph-2-41" data-name="glyph-2-4">
      <path d="M291.4,483.7v1.9h2.2v.8h-2.2v3.6c0,.5,0,.9.2,1,.1.1.4.2.9.2h1.1v.9h-1.1c-.8,0-1.4-.2-1.7-.5-.3-.3-.5-.9-.5-1.7v-3.6h-.8v-.8h.8v-1.9h1.1Z"/>
    </g>
    <g id="glyph-2-111" data-name="glyph-2-11">
      <path d="M300.9,488.6v.5h-5c0,.8.3,1.3.7,1.7.4.4,1,.6,1.7.6s.8,0,1.2-.1c.4-.1.8-.3,1.2-.5v1c-.4.2-.8.3-1.2.4-.4,0-.8.1-1.2.1-1,0-1.9-.3-2.5-.9-.6-.6-.9-1.4-.9-2.5s.3-1.9.9-2.5c.6-.6,1.4-1,2.3-1s1.6.3,2.1.9c.5.6.8,1.3.8,2.3ZM299.9,488.3c0-.6-.2-1.1-.5-1.4-.3-.4-.8-.5-1.3-.5s-1.1.2-1.5.5c-.4.3-.6.8-.6,1.4h3.8Z"/>
    </g>
    <g id="glyph-2-12" data-name="glyph-2-1">
      <path d="M306.1,486.6c-.1,0-.3-.1-.4-.1-.1,0-.3,0-.5,0-.6,0-1.1.2-1.4.6-.3.4-.5,1-.5,1.7v3.5h-1.1v-6.6h1.1v1c.2-.4.5-.7.9-.9.4-.2.8-.3,1.3-.3s.1,0,.2,0c0,0,.2,0,.3,0v1.1Z"/>
    </g>
    <g id="uuid-f78cb9e3-de24-4c53-a592-681be2e7f161" data-name="glyph-2-12">
      <path d="M313.9,483.1c-.5.9-.9,1.8-1.2,2.7-.2.9-.4,1.8-.4,2.7s.1,1.8.4,2.7c.3.9.6,1.8,1.2,2.7h-.9c-.6-.9-1-1.8-1.3-2.7-.3-.9-.4-1.8-.4-2.6s.1-1.8.4-2.6c.3-.9.7-1.8,1.3-2.7h.9Z"/>
    </g>
    <g id="glyph-2-13">
      <path d="M321.1,485.9v1c-.3-.2-.6-.3-.9-.4-.3,0-.6-.1-.9-.1-.7,0-1.3.2-1.6.7-.4.4-.6,1.1-.6,1.9s.2,1.4.6,1.9c.4.4.9.7,1.6.7s.6,0,.9-.1c.3,0,.6-.2.9-.4v1c-.3.1-.6.2-.9.3-.3,0-.7.1-1,.1-1,0-1.8-.3-2.4-.9-.6-.6-.9-1.5-.9-2.5s.3-1.9.9-2.5c.6-.6,1.4-.9,2.4-.9s.6,0,1,.1c.3,0,.6.2.9.3Z"/>
    </g>
    <g id="glyph-2-101" data-name="glyph-2-10">
      <path d="M328.4,486.9c.3-.5.6-.8,1-1.1.4-.2.8-.3,1.3-.3s1.2.2,1.6.7c.4.5.6,1.2.6,2v4h-1.1v-3.9c0-.6-.1-1.1-.3-1.4-.2-.3-.6-.5-1-.5s-1,.2-1.3.6c-.3.4-.5.9-.5,1.5v3.7h-1.1v-3.9c0-.6-.1-1.1-.3-1.4-.2-.3-.6-.5-1-.5s-1,.2-1.3.6c-.3.4-.5.9-.5,1.5v3.7h-1.1v-6.6h1.1v1c.2-.4.5-.7.9-.9.3-.2.8-.3,1.2-.3s.9.1,1.2.4c.3.2.6.6.7,1.1Z"/>
    </g>
    <g id="glyph-2-14">
      <path d="M335.2,483.1h.9c.6.9,1,1.8,1.3,2.7.3.9.4,1.8.4,2.6s-.1,1.8-.4,2.6c-.3.9-.7,1.8-1.3,2.7h-.9c.5-.9.9-1.8,1.2-2.7.3-.9.4-1.8.4-2.7s-.1-1.8-.4-2.7c-.3-.9-.6-1.8-1.2-2.7Z"/>
    </g>
  </g>
</svg>