<svg xmlns="http://www.w3.org/2000/svg" viewBox="0 0 943 655" width="100%" height="100%">
<style>
    .border { fill: white; stroke: black; stroke-width: 2; }
    .well { fill: white; stroke: black; stroke-width: 1.5; }
    .label { font-family: Arial, Helvetica, sans-serif; font-size: 18px; text-anchor: middle; dominant-baseline: central; fill: black; }
</style>
<path d="M 50 10 L 933 10 L 933 645 L 10 645 L 10 50 Z" class="border" />
<text x="40" y="80" class="label">A</text>
<text x="80" y="40" class="label">1</text>
<circle cx="80" cy="80" r="16" class="well" />
<text x="116" y="40" class="label">2</text>
<circle cx="116" cy="80" r="16" class="well" />
<text x="152" y="40" class="label">3</text>
<circle cx="152" cy="80" r="16" class="well" />
<text x="188" y="40" class="label">4</text>
<circle cx="188" cy="80" r="16" class="well" />
<text x="224" y="40" class="label">5</text>
<circle cx="224" cy="80" r="16" class="well" />
<text x="260" y="40" class="label">6</text>
<circle cx="260" cy="80" r="16" class="well" />
<text x="296" y="40" class="label">7</text>
<circle cx="296" cy="80" r="16" class="well" />
<text x="332" y="40" class="label">8</text>
<circle cx="332" cy="80" r="16" class="well" />
<text x="368" y="40" class="label">9</text>
<circle cx="368" cy="80" r="16" class="well" />
<text x="404" y="40" class="label">10</text>
<circle cx="404" cy="80" r="16" class="well" />
<text x="440" y="40" class="label">11</text>
<circle cx="440" cy="80" r="16" class="well" />
<text x="476" y="40" class="label">12</text>
<circle cx="476" cy="80" r="16" class="well" />
<text x="512" y="40" class="label">13</text>
<circle cx="512" cy="80" r="16" class="well" />
<text x="548" y="40" class="label">14</text>
<circle cx="548" cy="80" r="16" class="well" />
<text x="584" y="40" class="label">15</text>
<circle cx="584" cy="80" r="16" class="well" />
<text x="620" y="40" class="label">16</text>
<circle cx="620" cy="80" r="16" class="well" />
<text x="656" y="40" class="label">17</text>
<circle cx="656" cy="80" r="16" class="well" />
<text x="692" y="40" class="label">18</text>
<circle cx="692" cy="80" r="16" class="well" />
<text x="728" y="40" class="label">19</text>
<circle cx="728" cy="80" r="16" class="well" />
<text x="764" y="40" class="label">20</text>
<circle cx="764" cy="80" r="16" class="well" />
<text x="800" y="40" class="label">21</text>
<circle cx="800" cy="80" r="16" class="well" />
<text x="836" y="40" class="label">22</text>
<circle cx="836" cy="80" r="16" class="well" />
<text x="872" y="40" class="label">23</text>
<circle cx="872" cy="80" r="16" class="well" />
<text x="908" y="40" class="label">24</text>
<circle cx="908" cy="80" r="16" class="well" />
<text x="40" y="116" class="label">B</text>
<circle cx="80" cy="116" r="16" class="well" />
<circle cx="116" cy="116" r="16" class="well" />
<circle cx="152" cy="116" r="16" class="well" />
<circle cx="188" cy="116" r="16" class="well" />
<circle cx="224" cy="116" r="16" class="well" />
<circle cx="260" cy="116" r="16" class="well" />
<circle cx="296" cy="116" r="16" class="well" />
<circle cx="332" cy="116" r="16" class="well" />
<circle cx="368" cy="116" r="16" class="well" />
<circle cx="404" cy="116" r="16" class="well" />
<circle cx="440" cy="116" r="16" class="well" />
<circle cx="476" cy="116" r="16" class="well" />
<circle cx="512" cy="116" r="16" class="well" />
<circle cx="548" cy="116" r="16" class="well" />
<circle cx="584" cy="116" r="16" class="well" />
<circle cx="620" cy="116" r="16" class="well" />
<circle cx="656" cy="116" r="16" class="well" />
<circle cx="692" cy="116" r="16" class="well" />
<circle cx="728" cy="116" r="16" class="well" />
<circle cx="764" cy="116" r="16" class="well" />
<circle cx="800" cy="116" r="16" class="well" />
<circle cx="836" cy="116" r="16" class="well" />
<circle cx="872" cy="116" r="16" class="well" />
<circle cx="908" cy="116" r="16" class="well" />
<text x="40" y="152" class="label">C</text>
<circle cx="80" cy="152" r="16" class="well" />
<circle cx="116" cy="152" r="16" class="well" />
<circle cx="152" cy="152" r="16" class="well" />
<circle cx="188" cy="152" r="16" class="well" />
<circle cx="224" cy="152" r="16" class="well" />
<circle cx="260" cy="152" r="16" class="well" />
<circle cx="296" cy="152" r="16" class="well" />
<circle cx="332" cy="152" r="16" class="well" />
<circle cx="368" cy="152" r="16" class="well" />
<circle cx="404" cy="152" r="16" class="well" />
<circle cx="440" cy="152" r="16" class="well" />
<circle cx="476" cy="152" r="16" class="well" />
<circle cx="512" cy="152" r="16" class="well" />
<circle cx="548" cy="152" r="16" class="well" />
<circle cx="584" cy="152" r="16" class="well" />
<circle cx="620" cy="152" r="16" class="well" />
<circle cx="656" cy="152" r="16" class="well" />
<circle cx="692" cy="152" r="16" class="well" />
<circle cx="728" cy="152" r="16" class="well" />
<circle cx="764" cy="152" r="16" class="well" />
<circle cx="800" cy="152" r="16" class="well" />
<circle cx="836" cy="152" r="16" class="well" />
<circle cx="872" cy="152" r="16" class="well" />
<circle cx="908" cy="152" r="16" class="well" />
<text x="40" y="188" class="label">D</text>
<circle cx="80" cy="188" r="16" class="well" />
<circle cx="116" cy="188" r="16" class="well" />
<circle cx="152" cy="188" r="16" class="well" />
<circle cx="188" cy="188" r="16" class="well" />
<circle cx="224" cy="188" r="16" class="well" />
<circle cx="260" cy="188" r="16" class="well" />
<circle cx="296" cy="188" r="16" class="well" />
<circle cx="332" cy="188" r="16" class="well" />
<circle cx="368" cy="188" r="16" class="well" />
<circle cx="404" cy="188" r="16" class="well" />
<circle cx="440" cy="188" r="16" class="well" />
<circle cx="476" cy="188" r="16" class="well" />
<circle cx="512" cy="188" r="16" class="well" />
<circle cx="548" cy="188" r="16" class="well" />
<circle cx="584" cy="188" r="16" class="well" />
<circle cx="620" cy="188" r="16" class="well" />
<circle cx="656" cy="188" r="16" class="well" />
<circle cx="692" cy="188" r="16" class="well" />
<circle cx="728" cy="188" r="16" class="well" />
<circle cx="764" cy="188" r="16" class="well" />
<circle cx="800" cy="188" r="16" class="well" />
<circle cx="836" cy="188" r="16" class="well" />
<circle cx="872" cy="188" r="16" class="well" />
<circle cx="908" cy="188" r="16" class="well" />
<text x="40" y="224" class="label">E</text>
<circle cx="80" cy="224" r="16" class="well" />
<circle cx="116" cy="224" r="16" class="well" />
<circle cx="152" cy="224" r="16" class="well" />
<circle cx="188" cy="224" r="16" class="well" />
<circle cx="224" cy="224" r="16" class="well" />
<circle cx="260" cy="224" r="16" class="well" />
<circle cx="296" cy="224" r="16" class="well" />
<circle cx="332" cy="224" r="16" class="well" />
<circle cx="368" cy="224" r="16" class="well" />
<circle cx="404" cy="224" r="16" class="well" />
<circle cx="440" cy="224" r="16" class="well" />
<circle cx="476" cy="224" r="16" class="well" />
<circle cx="512" cy="224" r="16" class="well" />
<circle cx="548" cy="224" r="16" class="well" />
<circle cx="584" cy="224" r="16" class="well" />
<circle cx="620" cy="224" r="16" class="well" />
<circle cx="656" cy="224" r="16" class="well" />
<circle cx="692" cy="224" r="16" class="well" />
<circle cx="728" cy="224" r="16" class="well" />
<circle cx="764" cy="224" r="16" class="well" />
<circle cx="800" cy="224" r="16" class="well" />
<circle cx="836" cy="224" r="16" class="well" />
<circle cx="872" cy="224" r="16" class="well" />
<circle cx="908" cy="224" r="16" class="well" />
<text x="40" y="260" class="label">F</text>
<circle cx="80" cy="260" r="16" class="well" />
<circle cx="116" cy="260" r="16" class="well" />
<circle cx="152" cy="260" r="16" class="well" />
<circle cx="188" cy="260" r="16" class="well" />
<circle cx="224" cy="260" r="16" class="well" />
<circle cx="260" cy="260" r="16" class="well" />
<circle cx="296" cy="260" r="16" class="well" />
<circle cx="332" cy="260" r="16" class="well" />
<circle cx="368" cy="260" r="16" class="well" />
<circle cx="404" cy="260" r="16" class="well" />
<circle cx="440" cy="260" r="16" class="well" />
<circle cx="476" cy="260" r="16" class="well" />
<circle cx="512" cy="260" r="16" class="well" />
<circle cx="548" cy="260" r="16" class="well" />
<circle cx="584" cy="260" r="16" class="well" />
<circle cx="620" cy="260" r="16" class="well" />
<circle cx="656" cy="260" r="16" class="well" />
<circle cx="692" cy="260" r="16" class="well" />
<circle cx="728" cy="260" r="16" class="well" />
<circle cx="764" cy="260" r="16" class="well" />
<circle cx="800" cy="260" r="16" class="well" />
<circle cx="836" cy="260" r="16" class="well" />
<circle cx="872" cy="260" r="16" class="well" />
<circle cx="908" cy="260" r="16" class="well" />
<text x="40" y="296" class="label">G</text>
<circle cx="80" cy="296" r="16" class="well" />
<circle cx="116" cy="296" r="16" class="well" />
<circle cx="152" cy="296" r="16" class="well" />
<circle cx="188" cy="296" r="16" class="well" />
<circle cx="224" cy="296" r="16" class="well" />
<circle cx="260" cy="296" r="16" class="well" />
<circle cx="296" cy="296" r="16" class="well" />
<circle cx="332" cy="296" r="16" class="well" />
<circle cx="368" cy="296" r="16" class="well" />
<circle cx="404" cy="296" r="16" class="well" />
<circle cx="440" cy="296" r="16" class="well" />
<circle cx="476" cy="296" r="16" class="well" />
<circle cx="512" cy="296" r="16" class="well" />
<circle cx="548" cy="296" r="16" class="well" />
<circle cx="584" cy="296" r="16" class="well" />
<circle cx="620" cy="296" r="16" class="well" />
<circle cx="656" cy="296" r="16" class="well" />
<circle cx="692" cy="296" r="16" class="well" />
<circle cx="728" cy="296" r="16" class="well" />
<circle cx="764" cy="296" r="16" class="well" />
<circle cx="800" cy="296" r="16" class="well" />
<circle cx="836" cy="296" r="16" class="well" />
<circle cx="872" cy="296" r="16" class="well" />
<circle cx="908" cy="296" r="16" class="well" />
<text x="40" y="332" class="label">H</text>
<circle cx="80" cy="332" r="16" class="well" />
<circle cx="116" cy="332" r="16" class="well" />
<circle cx="152" cy="332" r="16" class="well" />
<circle cx="188" cy="332" r="16" class="well" />
<circle cx="224" cy="332" r="16" class="well" />
<circle cx="260" cy="332" r="16" class="well" />
<circle cx="296" cy="332" r="16" class="well" />
<circle cx="332" cy="332" r="16" class="well" />
<circle cx="368" cy="332" r="16" class="well" />
<circle cx="404" cy="332" r="16" class="well" />
<circle cx="440" cy="332" r="16" class="well" />
<circle cx="476" cy="332" r="16" class="well" />
<circle cx="512" cy="332" r="16" class="well" />
<circle cx="548" cy="332" r="16" class="well" />
<circle cx="584" cy="332" r="16" class="well" />
<circle cx="620" cy="332" r="16" class="well" />
<circle cx="656" cy="332" r="16" class="well" />
<circle cx="692" cy="332" r="16" class="well" />
<circle cx="728" cy="332" r="16" class="well" />
<circle cx="764" cy="332" r="16" class="well" />
<circle cx="800" cy="332" r="16" class="well" />
<circle cx="836" cy="332" r="16" class="well" />
<circle cx="872" cy="332" r="16" class="well" />
<circle cx="908" cy="332" r="16" class="well" />
<text x="40" y="368" class="label">I</text>
<circle cx="80" cy="368" r="16" class="well" />
<circle cx="116" cy="368" r="16" class="well" />
<circle cx="152" cy="368" r="16" class="well" />
<circle cx="188" cy="368" r="16" class="well" />
<circle cx="224" cy="368" r="16" class="well" />
<circle cx="260" cy="368" r="16" class="well" />
<circle cx="296" cy="368" r="16" class="well" />
<circle cx="332" cy="368" r="16" class="well" />
<circle cx="368" cy="368" r="16" class="well" />
<circle cx="404" cy="368" r="16" class="well" />
<circle cx="440" cy="368" r="16" class="well" />
<circle cx="476" cy="368" r="16" class="well" />
<circle cx="512" cy="368" r="16" class="well" />
<circle cx="548" cy="368" r="16" class="well" />
<circle cx="584" cy="368" r="16" class="well" />
<circle cx="620" cy="368" r="16" class="well" />
<circle cx="656" cy="368" r="16" class="well" />
<circle cx="692" cy="368" r="16" class="well" />
<circle cx="728" cy="368" r="16" class="well" />
<circle cx="764" cy="368" r="16" class="well" />
<circle cx="800" cy="368" r="16" class="well" />
<circle cx="836" cy="368" r="16" class="well" />
<circle cx="872" cy="368" r="16" class="well" />
<circle cx="908" cy="368" r="16" class="well" />
<text x="40" y="404" class="label">J</text>
<circle cx="80" cy="404" r="16" class="well" />
<circle cx="116" cy="404" r="16" class="well" />
<circle cx="152" cy="404" r="16" class="well" />
<circle cx="188" cy="404" r="16" class="well" />
<circle cx="224" cy="404" r="16" class="well" />
<circle cx="260" cy="404" r="16" class="well" />
<circle cx="296" cy="404" r="16" class="well" />
<circle cx="332" cy="404" r="16" class="well" />
<circle cx="368" cy="404" r="16" class="well" />
<circle cx="404" cy="404" r="16" class="well" />
<circle cx="440" cy="404" r="16" class="well" />
<circle cx="476" cy="404" r="16" class="well" />
<circle cx="512" cy="404" r="16" class="well" />
<circle cx="548" cy="404" r="16" class="well" />
<circle cx="584" cy="404" r="16" class="well" />
<circle cx="620" cy="404" r="16" class="well" />
<circle cx="656" cy="404" r="16" class="well" />
<circle cx="692" cy="404" r="16" class="well" />
<circle cx="728" cy="404" r="16" class="well" />
<circle cx="764" cy="404" r="16" class="well" />
<circle cx="800" cy="404" r="16" class="well" />
<circle cx="836" cy="404" r="16" class="well" />
<circle cx="872" cy="404" r="16" class="well" />
<circle cx="908" cy="404" r="16" class="well" />
<text x="40" y="440" class="label">K</text>
<circle cx="80" cy="440" r="16" class="well" />
<circle cx="116" cy="440" r="16" class="well" />
<circle cx="152" cy="440" r="16" class="well" />
<circle cx="188" cy="440" r="16" class="well" />
<circle cx="224" cy="440" r="16" class="well" />
<circle cx="260" cy="440" r="16" class="well" />
<circle cx="296" cy="440" r="16" class="well" />
<circle cx="332" cy="440" r="16" class="well" />
<circle cx="368" cy="440" r="16" class="well" />
<circle cx="404" cy="440" r="16" class="well" />
<circle cx="440" cy="440" r="16" class="well" />
<circle cx="476" cy="440" r="16" class="well" />
<circle cx="512" cy="440" r="16" class="well" />
<circle cx="548" cy="440" r="16" class="well" />
<circle cx="584" cy="440" r="16" class="well" />
<circle cx="620" cy="440" r="16" class="well" />
<circle cx="656" cy="440" r="16" class="well" />
<circle cx="692" cy="440" r="16" class="well" />
<circle cx="728" cy="440" r="16" class="well" />
<circle cx="764" cy="440" r="16" class="well" />
<circle cx="800" cy="440" r="16" class="well" />
<circle cx="836" cy="440" r="16" class="well" />
<circle cx="872" cy="440" r="16" class="well" />
<circle cx="908" cy="440" r="16" class="well" />
<text x="40" y="476" class="label">L</text>
<circle cx="80" cy="476" r="16" class="well" />
<circle cx="116" cy="476" r="16" class="well" />
<circle cx="152" cy="476" r="16" class="well" />
<circle cx="188" cy="476" r="16" class="well" />
<circle cx="224" cy="476" r="16" class="well" />
<circle cx="260" cy="476" r="16" class="well" />
<circle cx="296" cy="476" r="16" class="well" />
<circle cx="332" cy="476" r="16" class="well" />
<circle cx="368" cy="476" r="16" class="well" />
<circle cx="404" cy="476" r="16" class="well" />
<circle cx="440" cy="476" r="16" class="well" />
<circle cx="476" cy="476" r="16" class="well" />
<circle cx="512" cy="476" r="16" class="well" />
<circle cx="548" cy="476" r="16" class="well" />
<circle cx="584" cy="476" r="16" class="well" />
<circle cx="620" cy="476" r="16" class="well" />
<circle cx="656" cy="476" r="16" class="well" />
<circle cx="692" cy="476" r="16" class="well" />
<circle cx="728" cy="476" r="16" class="well" />
<circle cx="764" cy="476" r="16" class="well" />
<circle cx="800" cy="476" r="16" class="well" />
<circle cx="836" cy="476" r="16" class="well" />
<circle cx="872" cy="476" r="16" class="well" />
<circle cx="908" cy="476" r="16" class="well" />
<text x="40" y="512" class="label">M</text>
<circle cx="80" cy="512" r="16" class="well" />
<circle cx="116" cy="512" r="16" class="well" />
<circle cx="152" cy="512" r="16" class="well" />
<circle cx="188" cy="512" r="16" class="well" />
<circle cx="224" cy="512" r="16" class="well" />
<circle cx="260" cy="512" r="16" class="well" />
<circle cx="296" cy="512" r="16" class="well" />
<circle cx="332" cy="512" r="16" class="well" />
<circle cx="368" cy="512" r="16" class="well" />
<circle cx="404" cy="512" r="16" class="well" />
<circle cx="440" cy="512" r="16" class="well" />
<circle cx="476" cy="512" r="16" class="well" />
<circle cx="512" cy="512" r="16" class="well" />
<circle cx="548" cy="512" r="16" class="well" />
<circle cx="584" cy="512" r="16" class="well" />
<circle cx="620" cy="512" r="16" class="well" />
<circle cx="656" cy="512" r="16" class="well" />
<circle cx="692" cy="512" r="16" class="well" />
<circle cx="728" cy="512" r="16" class="well" />
<circle cx="764" cy="512" r="16" class="well" />
<circle cx="800" cy="512" r="16" class="well" />
<circle cx="836" cy="512" r="16" class="well" />
<circle cx="872" cy="512" r="16" class="well" />
<circle cx="908" cy="512" r="16" class="well" />
<text x="40" y="548" class="label">N</text>
<circle cx="80" cy="548" r="16" class="well" />
<circle cx="116" cy="548" r="16" class="well" />
<circle cx="152" cy="548" r="16" class="well" />
<circle cx="188" cy="548" r="16" class="well" />
<circle cx="224" cy="548" r="16" class="well" />
<circle cx="260" cy="548" r="16" class="well" />
<circle cx="296" cy="548" r="16" class="well" />
<circle cx="332" cy="548" r="16" class="well" />
<circle cx="368" cy="548" r="16" class="well" />
<circle cx="404" cy="548" r="16" class="well" />
<circle cx="440" cy="548" r="16" class="well" />
<circle cx="476" cy="548" r="16" class="well" />
<circle cx="512" cy="548" r="16" class="well" />
<circle cx="548" cy="548" r="16" class="well" />
<circle cx="584" cy="548" r="16" class="well" />
<circle cx="620" cy="548" r="16" class="well" />
<circle cx="656" cy="548" r="16" class="well" />
<circle cx="692" cy="548" r="16" class="well" />
<circle cx="728" cy="548" r="16" class="well" />
<circle cx="764" cy="548" r="16" class="well" />
<circle cx="800" cy="548" r="16" class="well" />
<circle cx="836" cy="548" r="16" class="well" />
<circle cx="872" cy="548" r="16" class="well" />
<circle cx="908" cy="548" r="16" class="well" />
<text x="40" y="584" class="label">O</text>
<circle cx="80" cy="584" r="16" class="well" />
<circle cx="116" cy="584" r="16" class="well" />
<circle cx="152" cy="584" r="16" class="well" />
<circle cx="188" cy="584" r="16" class="well" />
<circle cx="224" cy="584" r="16" class="well" />
<circle cx="260" cy="584" r="16" class="well" />
<circle cx="296" cy="584" r="16" class="well" />
<circle cx="332" cy="584" r="16" class="well" />
<circle cx="368" cy="584" r="16" class="well" />
<circle cx="404" cy="584" r="16" class="well" />
<circle cx="440" cy="584" r="16" class="well" />
<circle cx="476" cy="584" r="16" class="well" />
<circle cx="512" cy="584" r="16" class="well" />
<circle cx="548" cy="584" r="16" class="well" />
<circle cx="584" cy="584" r="16" class="well" />
<circle cx="620" cy="584" r="16" class="well" />
<circle cx="656" cy="584" r="16" class="well" />
<circle cx="692" cy="584" r="16" class="well" />
<circle cx="728" cy="584" r="16" class="well" />
<circle cx="764" cy="584" r="16" class="well" />
<circle cx="800" cy="584" r="16" class="well" />
<circle cx="836" cy="584" r="16" class="well" />
<circle cx="872" cy="584" r="16" class="well" />
<circle cx="908" cy="584" r="16" class="well" />
<text x="40" y="620" class="label">P</text>
<circle cx="80" cy="620" r="16" class="well" />
<circle cx="116" cy="620" r="16" class="well" />
<circle cx="152" cy="620" r="16" class="well" />
<circle cx="188" cy="620" r="16" class="well" />
<circle cx="224" cy="620" r="16" class="well" />
<circle cx="260" cy="620" r="16" class="well" />
<circle cx="296" cy="620" r="16" class="well" />
<circle cx="332" cy="620" r="16" class="well" />
<circle cx="368" cy="620" r="16" class="well" />
<circle cx="404" cy="620" r="16" class="well" />
<circle cx="440" cy="620" r="16" class="well" />
<circle cx="476" cy="620" r="16" class="well" />
<circle cx="512" cy="620" r="16" class="well" />
<circle cx="548" cy="620" r="16" class="well" />
<circle cx="584" cy="620" r="16" class="well" />
<circle cx="620" cy="620" r="16" class="well" />
<circle cx="656" cy="620" r="16" class="well" />
<circle cx="692" cy="620" r="16" class="well" />
<circle cx="728" cy="620" r="16" class="well" />
<circle cx="764" cy="620" r="16" class="well" />
<circle cx="800" cy="620" r="16" class="well" />
<circle cx="836" cy="620" r="16" class="well" />
<circle cx="872" cy="620" r="16" class="well" />
<circle cx="908" cy="620" r="16" class="well" />
</svg>