<svg width="2158" height="1267" xmlns="http://www.w3.org/2000/svg" xmlns:xlink="http://www.w3.org/1999/xlink" xml:space="preserve" overflow="hidden"><defs><clipPath id="clip0"><rect x="989" y="426" width="2158" height="1267"/></clipPath><linearGradient x1="2200" y1="815" x2="2200" y2="426" gradientUnits="userSpaceOnUse" spreadMethod="reflect" id="fill1"><stop offset="0" stop-color="#F8D673"/><stop offset="0.0119048" stop-color="#F7D572"/><stop offset="0.0238095" stop-color="#F7D572"/><stop offset="0.0357143" stop-color="#F7D572"/><stop offset="0.047619" stop-color="#F7D572"/><stop offset="0.0595238" stop-color="#F7D572"/><stop offset="0.0714286" stop-color="#F7D572"/><stop offset="0.0833333" stop-color="#F7D572"/><stop offset="0.0952381" stop-color="#F7D472"/><stop offset="0.107143" stop-color="#F7D472"/><stop offset="0.119048" stop-color="#F7D472"/><stop offset="0.130952" stop-color="#F7D472"/><stop offset="0.142857" stop-color="#F7D372"/><stop offset="0.154762" stop-color="#F7D371"/><stop offset="0.166667" stop-color="#F7D371"/><stop offset="0.178571" stop-color="#F7D271"/><stop offset="0.190476" stop-color="#F6D271"/><stop offset="0.202381" stop-color="#F6D171"/><stop offset="0.214286" stop-color="#F6D170"/><stop offset="0.22619" stop-color="#F6D070"/><stop offset="0.238095" stop-color="#F6D070"/><stop offset="0.25" stop-color="#F6CF70"/><stop offset="0.261905" stop-color="#F6CF6F"/><stop offset="0.27381" stop-color="#F5CE6F"/><stop offset="0.285714" stop-color="#F5CD6F"/><stop offset="0.297619" stop-color="#F5CD6F"/><stop offset="0.309524" stop-color="#F5CC6E"/><stop offset="0.321429" stop-color="#F5CB6E"/><stop offset="0.333333" stop-color="#F5CB6E"/><stop offset="0.345238" stop-color="#F4CA6D"/><stop offset="0.357143" stop-color="#F4C96D"/><stop offset="0.369048" stop-color="#F4C86D"/><stop offset="0.380952" stop-color="#F4C86C"/><stop offset="0.392857" stop-color="#F4C76C"/><stop offset="0.404762" stop-color="#F3C66C"/><stop offset="0.416667" stop-color="#F3C56B"/><stop offset="0.428571" stop-color="#F3C46B"/><stop offset="0.440476" stop-color="#F3C36A"/><stop offset="0.452381" stop-color="#F2C26A"/><stop offset="0.464286" stop-color="#F2C169"/><stop offset="0.47619" stop-color="#F2C069"/><stop offset="0.488095" stop-color="#F2BF69"/><stop offset="0.5" stop-color="#F1BE68"/><stop offset="0.511905" stop-color="#F1BD68"/><stop offset="0.52381" stop-color="#F1BC67"/><stop offset="0.535714" stop-color="#F0BB67"/><stop offset="0.547619" stop-color="#F0BA66"/><stop offset="0.559524" stop-color="#F0B966"/><stop offset="0.571429" stop-color="#EFB865"/><stop offset="0.583333" stop-color="#EFB765"/><stop offset="0.595238" stop-color="#EFB564"/><stop offset="0.607143" stop-color="#EEB464"/><stop offset="0.619048" stop-color="#EEB363"/><stop offset="0.630952" stop-color="#EEB262"/><stop offset="0.642857" stop-color="#EDB062"/><stop offset="0.654762" stop-color="#EDAF61"/><stop offset="0.666667" stop-color="#EDAE61"/><stop offset="0.678571" stop-color="#ECAC60"/><stop offset="0.690476" stop-color="#ECAB60"/><stop offset="0.702381" stop-color="#ECAA5F"/><stop offset="0.714286" stop-color="#EBA85E"/><stop offset="0.72619" stop-color="#EBA75E"/><stop offset="0.738095" stop-color="#EAA55D"/><stop offset="0.75" stop-color="#EAA45C"/><stop offset="0.761905" stop-color="#EAA25C"/><stop offset="0.77381" stop-color="#E9A15B"/><stop offset="0.785714" stop-color="#E99F5A"/><stop offset="0.797619" stop-color="#E89E5A"/><stop offset="0.809524" stop-color="#E89C59"/><stop offset="0.821429" stop-color="#E89B58"/><stop offset="0.833333" stop-color="#E79958"/><stop offset="0.845238" stop-color="#E79757"/><stop offset="0.857143" stop-color="#E69656"/><stop offset="0.869048" stop-color="#E69455"/><stop offset="0.880952" stop-color="#E59255"/><stop offset="0.892857" stop-color="#E59154"/><stop offset="0.904762" stop-color="#E48F53"/><stop offset="0.916667" stop-color="#E48D52"/><stop offset="0.928571" stop-color="#E38C51"/><stop offset="0.940476" stop-color="#E38A51"/><stop offset="0.952381" stop-color="#E38850"/><stop offset="0.964286" stop-color="#E2864F"/><stop offset="0.97619" stop-color="#E2844E"/><stop offset="0.988095" stop-color="#E1824D"/><stop offset="1" stop-color="#E1814D"/></linearGradient><linearGradient x1="2200" y1="1495" x2="2200" y2="1107" gradientUnits="userSpaceOnUse" spreadMethod="reflect" id="fill2"><stop offset="0" stop-color="#F8D673"/><stop offset="0.0119048" stop-color="#F7D572"/><stop offset="0.0238095" stop-color="#F7D572"/><stop offset="0.0357143" stop-color="#F7D572"/><stop offset="0.047619" stop-color="#F7D572"/><stop offset="0.0595238" stop-color="#F7D572"/><stop offset="0.0714286" stop-color="#F7D572"/><stop offset="0.0833333" stop-color="#F7D572"/><stop offset="0.0952381" stop-color="#F7D472"/><stop offset="0.107143" stop-color="#F7D472"/><stop offset="0.119048" stop-color="#F7D472"/><stop offset="0.130952" stop-color="#F7D472"/><stop offset="0.142857" stop-color="#F7D372"/><stop offset="0.154762" stop-color="#F7D371"/><stop offset="0.166667" stop-color="#F7D371"/><stop offset="0.178571" stop-color="#F7D271"/><stop offset="0.190476" stop-color="#F6D271"/><stop offset="0.202381" stop-color="#F6D171"/><stop offset="0.214286" stop-color="#F6D170"/><stop offset="0.22619" stop-color="#F6D070"/><stop offset="0.238095" stop-color="#F6D070"/><stop offset="0.25" stop-color="#F6CF70"/><stop offset="0.261905" stop-color="#F6CF6F"/><stop offset="0.27381" stop-color="#F5CE6F"/><stop offset="0.285714" stop-color="#F5CD6F"/><stop offset="0.297619" stop-color="#F5CD6F"/><stop offset="0.309524" stop-color="#F5CC6E"/><stop offset="0.321429" stop-color="#F5CB6E"/><stop offset="0.333333" stop-color="#F5CB6E"/><stop offset="0.345238" stop-color="#F4CA6D"/><stop offset="0.357143" stop-color="#F4C96D"/><stop offset="0.369048" stop-color="#F4C86D"/><stop offset="0.380952" stop-color="#F4C86C"/><stop offset="0.392857" stop-color="#F4C76C"/><stop offset="0.404762" stop-color="#F3C66C"/><stop offset="0.416667" stop-color="#F3C56B"/><stop offset="0.428571" stop-color="#F3C46B"/><stop offset="0.440476" stop-color="#F3C36A"/><stop offset="0.452381" stop-color="#F2C26A"/><stop offset="0.464286" stop-color="#F2C169"/><stop offset="0.47619" stop-color="#F2C069"/><stop offset="0.488095" stop-color="#F2BF69"/><stop offset="0.5" stop-color="#F1BE68"/><stop offset="0.511905" stop-color="#F1BD68"/><stop offset="0.52381" stop-color="#F1BC67"/><stop offset="0.535714" stop-color="#F0BB67"/><stop offset="0.547619" stop-color="#F0BA66"/><stop offset="0.559524" stop-color="#F0B966"/><stop offset="0.571429" stop-color="#EFB865"/><stop offset="0.583333" stop-color="#EFB765"/><stop offset="0.595238" stop-color="#EFB564"/><stop offset="0.607143" stop-color="#EEB464"/><stop offset="0.619048" stop-color="#EEB363"/><stop offset="0.630952" stop-color="#EEB262"/><stop offset="0.642857" stop-color="#EDB062"/><stop offset="0.654762" stop-color="#EDAF61"/><stop offset="0.666667" stop-color="#EDAE61"/><stop offset="0.678571" stop-color="#ECAC60"/><stop offset="0.690476" stop-color="#ECAB60"/><stop offset="0.702381" stop-color="#ECAA5F"/><stop offset="0.714286" stop-color="#EBA85E"/><stop offset="0.72619" stop-color="#EBA75E"/><stop offset="0.738095" stop-color="#EAA55D"/><stop offset="0.75" stop-color="#EAA45C"/><stop offset="0.761905" stop-color="#EAA25C"/><stop offset="0.77381" stop-color="#E9A15B"/><stop offset="0.785714" stop-color="#E99F5A"/><stop offset="0.797619" stop-color="#E89E5A"/><stop offset="0.809524" stop-color="#E89C59"/><stop offset="0.821429" stop-color="#E89B58"/><stop offset="0.833333" stop-color="#E79958"/><stop offset="0.845238" stop-color="#E79757"/><stop offset="0.857143" stop-color="#E69656"/><stop offset="0.869048" stop-color="#E69455"/><stop offset="0.880952" stop-color="#E59255"/><stop offset="0.892857" stop-color="#E59154"/><stop offset="0.904762" stop-color="#E48F53"/><stop offset="0.916667" stop-color="#E48D52"/><stop offset="0.928571" stop-color="#E38C51"/><stop offset="0.940476" stop-color="#E38A51"/><stop offset="0.952381" stop-color="#E38850"/><stop offset="0.964286" stop-color="#E2864F"/><stop offset="0.97619" stop-color="#E2844E"/><stop offset="0.988095" stop-color="#E1824D"/><stop offset="1" stop-color="#E1814D"/></linearGradient></defs><g clip-path="url(#clip0)" transform="translate(-989 -426)"><rect x="1848" y="819" width="1299" height="25.9998" fill="#313F57"/><path d="M2730 806 2730 688 2795 623 2860 688 2860 806Z" fill="#F8D673" fill-rule="evenodd"/><path d="M2730 426 2860 426 2860 686C2860 650.102 2830.9 621 2795 621 2759.1 621 2730 650.102 2730 686L2730 426Z" fill="#E1814D" fill-rule="evenodd"/><path d="M2430 815 2430 697 2495 632 2560 697 2560 815Z" fill="#F8D673" fill-rule="evenodd"/><rect x="2430" y="426" width="130" height="168" fill="#E1814D"/><path d="M2560 686 2560 686 2560 751 2560 751ZM2430 556 2560 556 2560 686 2495 621 2430 686 2430 751 2430 751Z" fill="#E1814D" fill-rule="evenodd"/><rect x="2135" y="426" width="130" height="389" fill="url(#fill1)"/><path d="M2730 947C2730 911.102 2759.1 882 2795 882 2830.9 882 2860 911.102 2860 947 2860 982.898 2830.9 1012 2795 1012 2759.1 1012 2730 982.898 2730 947ZM2830.77 966.26C2841.41 946.506 2834.02 921.868 2814.26 911.231 2802.24 904.756 2787.76 904.756 2775.74 911.231ZM2759.23 927.74C2748.59 947.495 2755.98 972.132 2775.74 982.769 2787.76 989.244 2802.24 989.244 2814.26 982.769Z" fill="#C00000" fill-rule="evenodd"/><path d="M2430 947C2430 911.102 2459.1 882 2495 882 2530.9 882 2560 911.102 2560 947 2560 982.898 2530.9 1012 2495 1012 2459.1 1012 2430 982.898 2430 947ZM2462.5 947C2462.5 964.949 2477.05 979.5 2495 979.5 2512.95 979.5 2527.5 964.949 2527.5 947 2527.5 929.051 2512.95 914.5 2495 914.5 2477.05 914.5 2462.5 929.051 2462.5 947Z" fill="#47D45A" fill-rule="evenodd"/><path d="M2135 947C2135 911.102 2164.1 882 2200 882 2235.9 882 2265 911.102 2265 947 2265 982.898 2235.9 1012 2200 1012 2164.1 1012 2135 982.898 2135 947ZM2167.5 947C2167.5 964.949 2182.05 979.5 2200 979.5 2217.95 979.5 2232.5 964.949 2232.5 947 2232.5 929.051 2217.95 914.5 2200 914.5 2182.05 914.5 2167.5 929.051 2167.5 947Z" fill="#47D45A" fill-rule="evenodd"/><rect x="1848" y="1499" width="1299" height="25.9998" fill="#313F57"/><path d="M2730 1107 2860 1107 2860 1367C2860 1331.1 2830.9 1302 2795 1302 2759.1 1302 2730 1331.1 2730 1367L2730 1107Z" fill="#2C68A2" fill-rule="evenodd"/><rect x="2135" y="1107" width="130" height="388" fill="url(#fill2)"/><path d="M2730 1628C2730 1592.1 2759.1 1563 2795 1563 2830.9 1563 2860 1592.1 2860 1628 2860 1663.9 2830.9 1693 2795 1693 2759.1 1693 2730 1663.9 2730 1628ZM2830.77 1647.26C2841.41 1627.51 2834.02 1602.87 2814.26 1592.23 2802.24 1585.76 2787.76 1585.76 2775.74 1592.23ZM2759.23 1608.74C2748.59 1628.49 2755.98 1653.13 2775.74 1663.77 2787.76 1670.24 2802.24 1670.24 2814.26 1663.77Z" fill="#C00000" fill-rule="evenodd"/><path d="M2430 1627C2430 1591.1 2459.1 1562 2495 1562 2530.9 1562 2560 1591.1 2560 1627 2560 1662.9 2530.9 1692 2495 1692 2459.1 1692 2430 1662.9 2430 1627ZM2462.5 1627C2462.5 1644.95 2477.05 1659.5 2495 1659.5 2512.95 1659.5 2527.5 1644.95 2527.5 1627 2527.5 1609.05 2512.95 1594.5 2495 1594.5 2477.05 1594.5 2462.5 1609.05 2462.5 1627Z" fill="#47D45A" fill-rule="evenodd"/><path d="M2135 1627C2135 1591.1 2164.1 1562 2200 1562 2235.9 1562 2265 1591.1 2265 1627 2265 1662.9 2235.9 1692 2200 1692 2164.1 1692 2135 1662.9 2135 1627ZM2167.5 1627C2167.5 1644.95 2182.05 1659.5 2200 1659.5 2217.95 1659.5 2232.5 1644.95 2232.5 1627 2232.5 1609.05 2217.95 1594.5 2200 1594.5 2182.05 1594.5 2167.5 1609.05 2167.5 1627Z" fill="#47D45A" fill-rule="evenodd"/><rect x="2730" y="1107" width="130" height="168" fill="#E1814D"/><path d="M2430 1495 2430 1377 2495 1312 2560 1377 2560 1495Z" fill="#D95E5A" fill-rule="evenodd"/><path d="M2560 1366.33 2560 1366.33 2560 1431 2560 1431ZM2430 1237 2560 1237 2560 1366.33 2495 1301.67 2430 1366.33 2430 1431 2430 1431Z" fill="#2C68A2" fill-rule="evenodd"/><rect x="2430" y="1107" width="130" height="168" fill="#E1814D"/><rect x="2430" y="1417" width="130" height="78" fill="#F8D673"/><path d="M2730 1495 2730 1377 2795 1312 2860 1377 2860 1495Z" fill="#D95E5A" fill-rule="evenodd"/><rect x="2730" y="1417" width="130" height="78" fill="#F8D673"/><path d="M989 1119 989 1001 1054 936 1119 1001 1119 1119Z" fill="#F8D673" fill-rule="evenodd"/><rect x="989" y="494" width="130" height="169" fill="#E1814D"/><path d="M1119 754 1119 754 1119 819 1119 819ZM989 624 1119 624 1119 754 1054 689 989 754 989 819 989 819Z" fill="#E1814D" fill-rule="evenodd"/><path d="M1421 1119 1421 1001 1486 936 1551 1001 1551 1119Z" fill="#D95E5A" fill-rule="evenodd"/><path d="M1551 754 1551 754 1551 819 1551 819ZM1421 624 1551 624 1551 754 1486 689 1421 754 1421 819 1421 819Z" fill="#2C68A2" fill-rule="evenodd"/><rect x="1421" y="494" width="130" height="169" fill="#E1814D"/><rect x="1421" y="1041" width="130" height="78" fill="#F8D673"/><path d="M1180 845.978 1315.57 845.978 1315.57 828 1357 853 1315.57 878 1315.57 860.023 1180 860.023Z" fill-rule="evenodd"/><text font-family="DengXian,DengXian_MSFontService,sans-serif" font-weight="400" font-size="50" transform="matrix(1 0 0 1 1191.83 822)">改造后</text><path d="M1469 1476 1351 1476 1286 1411 1351 1346 1469 1346Z" fill="#D95E5A" fill-rule="evenodd"/><path d="M1249 1346 1249 1346 1314 1346 1314 1346ZM1119 1476 1119 1346 1249 1346 1184 1411 1249 1476 1314 1476 1314 1476Z" fill="#2C68A2" fill-rule="evenodd"/><rect x="989" y="1320" width="169" height="205" fill="#FFFFFF"/><rect x="1391" y="1326" width="112" height="194" fill="#FFFFFF"/><text font-family="DengXian,DengXian_MSFontService,sans-serif" font-weight="400" font-size="50" transform="matrix(1 0 0 1 1148.18 1561)">目的基因对</text><text font-family="DengXian,DengXian_MSFontService,sans-serif" font-weight="400" font-size="50" transform="matrix(1 0 0 1 1122.97 1622)">（假设互作）</text></g></svg>