<svg width="4547" height="1949" xmlns="http://www.w3.org/2000/svg" xmlns:xlink="http://www.w3.org/1999/xlink" xml:space="preserve" overflow="hidden"><defs><clipPath id="clip0"><rect x="45" y="163" width="4547" height="1949"/></clipPath></defs><g clip-path="url(#clip0)" tranEorm="translate(-45 -163)"><rect x="45" y="163" width="4547" height="1949" fill="#FFFFFF"/><rect x="2457.5" y="488.5" width="649" height="1299" stroke="#042433" stroke-width="6.875" stroke-miterlimit="8" fill="#F2F2F2"/><text font-family="DengXian,DengXian_MEontService,sans-serif" font-weight="400" font-size="83" tranEorm="matrix(1 0 0 1 2699.04 1610)">跑步</text><rect x="1401.5" y="488.5" width="650" height="1299" stroke="#042433" stroke-width="6.875" stroke-miterlimit="8" fill="#F2F2F2"/><text font-family="DengXian,DengXian_MEontService,sans-serif" font-weight="400" font-size="83" tranEorm="matrix(1 0 0 1 1643.2 1610)">睡觉</text><path d="M475.5 996C475.5 888.581 562.804 801.5 670.5 801.5 778.196 801.5 865.5 888.581 865.5 996 865.5 1103.42 778.196 1190.5 670.5 1190.5 562.804 1190.5 475.5 1103.42 475.5 996Z" stroke="#000000" stroke-width="6.875" stroke-miterlimit="8" fill="#FFFFFF" fill-rule="evenodd"/><text font-family="DengXian,DengXian_MEontService,sans-serif" font-weight="400" font-size="73" tranEorm="matrix(1 0 0 1 596.519 976)">初始</text><text font-family="DengXian,DengXian_MEontService,sans-serif" font-weight="400" font-size="73" tranEorm="matrix(1 0 0 1 596.519 1064)">概率</text><rect x="1531.5" y="588.5" width="390" height="194" stroke="#042433" stroke-width="6.875" stroke-miterlimit="8" fill="#FFFFFF"/><text font-family="DengXian,DengXian_MEontService,sans-serif" font-weight="400" font-size="73" tranEorm="matrix(1 0 0 1 1613.41 709)">晴</text><text font-family="DengXian,DengXian_MEontService,sans-serif" font-weight="400" font-size="73" tranEorm="matrix(1 0 0 1 1706.79 709)">0.05</text><rect x="1531.5" y="898.5" width="390" height="195" stroke="#042433" stroke-width="6.875" stroke-miterlimit="8" fill="#FFFFFF"/><text font-family="DengXian,DengXian_MEontService,sans-serif" font-weight="400" font-size="73" tranEorm="matrix(1 0 0 1 1613.41 1020)">阴</text><text font-family="DengXian,DengXian_MEontService,sans-serif" font-weight="400" font-size="73" tranEorm="matrix(1 0 0 1 1706.79 1020)">0.10</text><rect x="1531.5" y="1209.5" width="390" height="195" stroke="#042433" stroke-width="6.875" stroke-miterlimit="8" fill="#FFFFFF"/><text font-family="DengXian,DengXian_MEontService,sans-serif" font-weight="400" font-size="73" tranEorm="matrix(1 0 0 1 1613.41 1330)">雨</text><text font-family="DengXian,DengXian_MEontService,sans-serif" font-weight="400" font-size="73" tranEorm="matrix(1 0 0 1 1706.79 1330)">0.21</text><rect x="2587.5" y="588.5" width="389" height="194" stroke="#042433" stroke-width="6.875" stroke-miterlimit="8" fill="#FFFFFF"/><text font-family="DengXian,DengXian_MEontService,sans-serif" font-weight="400" font-size="73" tranEorm="matrix(1 0 0 1 2630.87 709)">晴</text><text font-family="DengXian,DengXian_MEontService,sans-serif" font-weight="400" font-size="73" tranEorm="matrix(1 0 0 1 2724.25 709)">0.0441</text><rect x="2587.5" y="898.5" width="389" height="195" stroke="#042433" stroke-width="6.875" stroke-miterlimit="8" fill="#FFFFFF"/><text font-family="DengXian,DengXian_MEontService,sans-serif" font-weight="400" font-size="73" tranEorm="matrix(1 0 0 1 2630.87 1020)">阴</text><text font-family="DengXian,DengXian_MEontService,sans-serif" font-weight="400" font-size="73" tranEorm="matrix(1 0 0 1 2724.25 1020)">0.0168</text><rect x="2587.5" y="1209.5" width="389" height="195" stroke="#042433" stroke-width="6.875" stroke-miterlimit="8" fill="#FFFFFF"/><text font-family="DengXian,DengXian_MEontService,sans-serif" font-weight="400" font-size="73" tranEorm="matrix(1 0 0 1 2630.87 1330)">雨</text><text font-family="DengXian,DengXian_MEontService,sans-serif" font-weight="400" font-size="73" tranEorm="matrix(1 0 0 1 2724.25 1330)">0.0063</text><path d="M1.45288-3.11537 646.764 297.832 643.858 304.063-1.45288 3.11537ZM646.97 286.549 666.081 310.634 635.347 311.472Z" fill="#FF0000" tranEorm="matrix(1 0 0 -1 865.5 996.134)"/><path d="M865.5 993.063 1508.66 993.063 1508.66 999.938 865.5 999.938ZM1504.08 982.75 1531.58 996.5 1504.08 1010.25Z" fill="#FF0000"/><path d="M866.953 993.385 1512.26 1294.33 1509.36 1300.56 864.047 999.615ZM1512.47 1283.05 1531.58 1307.13 1500.85 1307.97Z" fill="#FF0000"/><path d="M1921.5 993.063 2564.66 993.063 2564.66 999.938 1921.5 999.938ZM2560.08 982.75 2587.58 996.5 2560.08 1010.25Z"/><path d="M2.34465-2.51377 651.667 603.123 646.978 608.15-2.34465 2.51377ZM655.35 592.455 666.081 621.268 636.593 612.566Z" fill="#FF0000" tranEorm="matrix(1 0 0 -1 1921.5 1306.77)"/><path d="M1922.95 993.385 2568.26 1294.33 2565.36 1300.56 1920.05 999.615ZM2568.47 1283.05 2587.58 1307.13 2556.85 1307.97Z"/><path d="M1922.95 682.385 2568.26 983.332 2565.36 989.562 1920.05 688.615ZM2568.47 972.049 2587.58 996.134 2556.85 996.972Z"/><path d="M1.45288-3.11537 646.764 297.832 643.858 304.063-1.45288 3.11537ZM646.97 286.549 666.081 310.634 635.347 311.472Z" tranEorm="matrix(1 0 0 -1 1921.5 996.134)"/><path d="M1921.5 1303.06 2564.66 1303.06 2564.66 1309.94 1921.5 1309.94ZM2560.08 1292.75 2587.58 1306.5 2560.08 1320.25Z" fill="#FF0000"/><path d="M1921.5 682.062 2564.66 682.063 2564.66 688.938 1921.5 688.937ZM2560.08 671.75 2587.58 685.5 2560.08 699.25Z"/><path d="M1.45288-3.11537 646.764 297.832 643.858 304.063-1.45288 3.11537ZM646.97 286.549 666.081 310.634 635.347 311.472Z" fill="#FF0000" tranEorm="matrix(1 0 0 -1 1921.5 1307.13)"/><path d="M1923.84 682.986 2573.17 1288.62 2568.48 1293.65 1919.16 688.014ZM2576.85 1277.96 2587.58 1306.77 2558.09 1298.07Z"/><rect x="3513.5" y="488.5" width="649" height="1299" stroke="#042433" stroke-width="6.875" stroke-miterlimit="8" fill="#F2F2F2"/><text font-family="DengXian,DengXian_MEontService,sans-serif" font-weight="400" font-size="83" tranEorm="matrix(1 0 0 1 3754.89 1610)">逛街</text><rect x="3643.5" y="588.5" width="389" height="194" stroke="#042433" stroke-width="6.875" stroke-miterlimit="8" fill="#FFFFFF"/><text font-family="DengXian,DengXian_MEontService,sans-serif" font-weight="400" font-size="73" tranEorm="matrix(1 0 0 1 3686.71 709)">晴</text><text font-family="DengXian,DengXian_MEontService,sans-serif" font-weight="400" font-size="73" tranEorm="matrix(1 0 0 1 3780.1 709)">0.0062</text><rect x="3643.5" y="898.5" width="389" height="195" stroke="#042433" stroke-width="6.875" stroke-miterlimit="8" fill="#FFFFFF"/><text font-family="DengXian,DengXian_MEontService,sans-serif" font-weight="400" font-size="73" tranEorm="matrix(1 0 0 1 3686.71 1020)">阴</text><text font-family="DengXian,DengXian_MEontService,sans-serif" font-weight="400" font-size="73" tranEorm="matrix(1 0 0 1 3780.1 1020)">0.0026</text><rect x="3643.5" y="1209.5" width="389" height="195" stroke="#042433" stroke-width="6.875" stroke-miterlimit="8" fill="#FFFFFF"/><text font-family="DengXian,DengXian_MEontService,sans-serif" font-weight="400" font-size="73" tranEorm="matrix(1 0 0 1 3686.71 1330)">雨</text><text font-family="DengXian,DengXian_MEontService,sans-serif" font-weight="400" font-size="73" tranEorm="matrix(1 0 0 1 3780.1 1330)">0.0009</text><path d="M2976.5 993.063 3619.66 993.063 3619.66 999.938 2976.5 999.938ZM3615.08 982.75 3642.58 996.5 3615.08 1010.25Z"/><path d="M2.34465-2.51377 651.667 603.123 646.978 608.15-2.34465 2.51377ZM655.35 592.455 666.081 621.268 636.593 612.566Z" tranEorm="matrix(1 0 0 -1 2976.5 1306.77)"/><path d="M2977.95 993.385 3623.26 1294.33 3620.36 1300.56 2975.05 999.615ZM3623.47 1283.05 3642.58 1307.13 3611.85 1307.97Z"/><path d="M2977.95 682.385 3623.26 983.332 3620.36 989.562 2975.05 688.615ZM3623.47 972.049 3642.58 996.134 3611.85 996.972Z" fill="#FF0000"/><path d="M1.45288-3.11537 646.764 297.832 643.858 304.063-1.45288 3.11537ZM646.97 286.549 666.081 310.634 635.347 311.472Z" tranEorm="matrix(1 0 0 -1 2976.5 996.134)"/><path d="M2976.5 1303.06 3619.66 1303.06 3619.66 1309.94 2976.5 1309.94ZM3615.08 1292.75 3642.58 1306.5 3615.08 1320.25Z"/><path d="M2976.5 682.062 3619.66 682.063 3619.66 688.938 2976.5 688.937ZM3615.08 671.75 3642.58 685.5 3615.08 699.25Z" fill="#FF0000"/><path d="M1.45288-3.11537 646.764 297.832 643.858 304.063-1.45288 3.11537ZM646.97 286.549 666.081 310.634 635.347 311.472Z" tranEorm="matrix(1 0 0 -1 2976.5 1307.13)"/><path d="M2978.84 682.986 3628.17 1288.62 3623.48 1293.65 2974.16 688.014ZM3631.85 1277.96 3642.58 1306.77 3613.09 1298.07Z" fill="#FF0000"/></g></svg>